<svg width="10500" height="2160" viewBox="0 0 10500 2160" fill="none" xmlns="http://www.w3.org/2000/svg">
<rect width="10500" height="2160" fill="#DBCDCC"/>
<path d="M2781.29 263.432C2788.49 270.409 2801.62 291.382 2807.46 289.926C2823.74 286.604 2841.22 285.823 2856.39 293.798C2861.94 296.717 2869.89 301.273 2869.97 308.489C2870.04 314.422 2863.96 317.754 2859.07 319.505C2849.65 322.88 2839.11 320.107 2829.62 318.411C2827.33 318.002 2824.88 317.214 2822.56 317.769C2818.82 318.664 2816.28 321.839 2815.71 325.586C2820.37 330.579 2844.05 356.09 2845.27 365.24C2846.49 374.391 2839.78 378.778 2831.55 379.339C2814.06 377.737 2809.12 371.267 2797.77 358.064C2792.01 344.843 2791.43 339.565 2792.59 330.218C2788.4 328.636 2771.55 333.803 2767.37 335.027C2761.4 336.774 2754.74 338.534 2748.46 337.998C2739.14 337.202 2731.37 329.318 2727.36 321.463C2718.93 304.913 2716.61 286.28 2722.54 268.446C2724.85 261.49 2728.77 254.159 2735.09 250.065C2740.75 246.405 2747.88 245.33 2754.47 246.721C2764.64 248.869 2774.03 256.393 2781.29 263.432Z" fill="#CC6187"/>
<path d="M2868.18 305.126C2869.29 308.645 2869.37 313.375 2866.25 315.955C2862.97 318.658 2856.13 318.314 2851.93 318.822C2846.17 319.517 2840.56 320.36 2834.73 320.188C2820.74 319.775 2806.59 317.936 2793.07 314.354C2779.04 310.639 2769.04 300.182 2756.7 292.312C2748.81 285.314 2741.87 274.708 2740.11 265.983C2737.95 255.252 2735.96 250.483 2743.14 246.345C2743.1 245.827 2748.2 244.007 2746.4 244.759C2745.15 245.284 2744.07 245.809 2743.14 246.345C2743.14 246.428 2743.28 246.477 2743.6 246.477C2746.85 246.479 2749.98 246.862 2753.07 247.858C2760.07 250.113 2767.78 253.258 2773.43 258.042C2783.89 266.919 2790.89 280.339 2803.99 285.811C2812.31 289.284 2820.77 289.709 2829.66 289.641C2836.17 289.592 2842.76 290.046 2849.11 291.637C2856.57 293.51 2866.38 299.426 2868.18 305.126Z" fill="#C2597E"/>
<path d="M2775.9 288.124C2772.95 287.597 2772.39 286.476 2771.96 283.626C2772.43 281.021 2773.77 279.617 2776.72 280.144C2779.67 280.671 2781.42 281.558 2780.96 284.162C2780.99 286.115 2778.85 288.651 2775.9 288.124Z" fill="black"/>
<path d="M2770.62 317.656C2767.67 317.129 2767.09 316.131 2766.6 313.617C2767.01 311.338 2768.32 310.134 2771.26 310.66C2774.21 311.187 2775.98 312.005 2775.57 314.284C2775.65 316.001 2773.57 318.183 2770.62 317.656Z" fill="black"/>
<path d="M1773.43 1577.65C1783.32 1576 1807.98 1577.89 1810.28 1572.32C1817.27 1557.25 1827.02 1542.72 1842.44 1535.25C1848.09 1532.51 1856.48 1528.82 1862.33 1533.04C1867.14 1536.51 1866.22 1543.38 1864.72 1548.35C1861.85 1557.94 1853.36 1564.77 1846.36 1571.4C1844.67 1573 1842.58 1574.51 1841.65 1576.7C1840.15 1580.24 1841.2 1584.17 1843.87 1586.86C1850.66 1586.07 1885.24 1582.16 1893.33 1586.61C1901.42 1591.06 1900.97 1599.06 1896.54 1606.02C1884.86 1619.14 1876.73 1619.27 1859.36 1620.57C1845.3 1617.36 1840.71 1614.7 1833.88 1608.21C1830.12 1610.64 1824.27 1627.27 1822.78 1631.36C1820.64 1637.2 1818.1 1643.6 1813.94 1648.34C1807.77 1655.37 1796.81 1656.94 1788.11 1655.5C1769.78 1652.46 1753.41 1643.27 1742.58 1627.91C1738.35 1621.92 1734.78 1614.41 1735.24 1606.89C1735.65 1600.17 1739.02 1593.79 1744.05 1589.32C1751.82 1582.41 1763.45 1579.32 1773.43 1577.65Z" fill="#CC6187"/>
<path d="M1858.56 1532.48C1862.05 1533.68 1865.91 1536.42 1866.13 1540.47C1866.36 1544.71 1862.02 1550.01 1859.93 1553.69C1857.07 1558.74 1854.42 1563.76 1850.82 1568.35C1842.19 1579.36 1832.3 1589.65 1821.39 1598.41C1810.08 1607.49 1795.72 1609.33 1782.06 1614.59C1771.75 1616.79 1759.1 1616.07 1751.03 1612.31C1741.11 1607.68 1736.09 1606.45 1737.02 1598.21C1736.59 1597.93 1738.15 1592.75 1737.69 1594.64C1737.37 1595.96 1737.14 1597.15 1737.02 1598.21C1737.09 1598.26 1737.22 1598.18 1737.4 1597.92C1739.34 1595.31 1741.5 1593.01 1744.14 1591.12C1750.11 1586.83 1757.22 1582.48 1764.42 1580.78C1777.78 1577.63 1792.73 1579.97 1804.91 1572.67C1812.64 1568.04 1818.01 1561.48 1823.23 1554.29C1827.06 1549.02 1831.33 1543.99 1836.38 1539.83C1842.32 1534.93 1852.91 1530.55 1858.56 1532.48Z" fill="#C2597E"/>
<path d="M1790.09 1596.65C1787.92 1598.71 1786.69 1598.5 1784.14 1597.15C1782.32 1595.23 1781.98 1593.31 1784.16 1591.26C1786.33 1589.2 1788.09 1588.31 1789.91 1590.23C1791.5 1591.36 1792.27 1594.59 1790.09 1596.65Z" fill="black"/>
<path d="M1810.72 1618.43C1808.55 1620.49 1807.4 1620.37 1805.09 1619.27C1803.5 1617.59 1803.3 1615.82 1805.48 1613.76C1807.65 1611.7 1809.36 1610.76 1810.95 1612.44C1812.38 1613.4 1812.9 1616.37 1810.72 1618.43Z" fill="black"/>
<path d="M2467.06 1363.21C2457.23 1365.17 2432.51 1364.05 2430.39 1369.69C2423.87 1384.97 2414.58 1399.79 2399.39 1407.74C2393.84 1410.65 2385.57 1414.6 2379.59 1410.57C2374.67 1407.25 2375.38 1400.35 2376.72 1395.34C2379.3 1385.66 2387.57 1378.57 2394.36 1371.73C2396 1370.08 2398.04 1368.5 2398.9 1366.28C2400.29 1362.7 2399.12 1358.8 2396.36 1356.2C2389.61 1357.2 2355.16 1362.18 2346.93 1357.98C2338.71 1353.79 2338.92 1345.77 2343.13 1338.68C2354.39 1325.21 2362.52 1324.82 2379.84 1322.98C2393.99 1325.75 2398.66 1328.28 2405.69 1334.55C2409.38 1332 2414.7 1315.2 2416.07 1311.07C2418.03 1305.16 2420.36 1298.68 2424.37 1293.82C2430.33 1286.6 2441.23 1284.69 2449.97 1285.86C2468.38 1288.33 2485.03 1297.01 2496.33 1312.02C2500.74 1317.88 2504.55 1325.27 2504.32 1332.8C2504.12 1339.53 2500.95 1346.01 2496.06 1350.64C2488.51 1357.79 2476.98 1361.24 2467.06 1363.21Z" fill="#CC6187"/>
<path d="M2383.37 1411C2379.84 1409.92 2375.91 1407.3 2375.56 1403.26C2375.2 1399.02 2379.37 1393.59 2381.34 1389.85C2384.04 1384.71 2386.54 1379.62 2390 1374.92C2398.28 1363.65 2407.84 1353.05 2418.47 1343.96C2429.51 1334.53 2443.79 1332.24 2457.28 1326.56C2467.53 1324.05 2480.19 1324.37 2488.37 1327.88C2498.43 1332.2 2503.49 1333.27 2502.81 1341.53C2503.26 1341.8 2501.86 1347.03 2502.26 1345.12C2502.54 1343.79 2502.72 1342.6 2502.81 1341.53C2502.74 1341.49 2502.62 1341.58 2502.44 1341.84C2500.59 1344.51 2498.49 1346.87 2495.92 1348.85C2490.09 1353.32 2483.11 1357.88 2475.97 1359.8C2462.72 1363.37 2447.7 1361.5 2435.75 1369.17C2428.16 1374.04 2423 1380.76 2418.01 1388.11C2414.35 1393.5 2410.23 1398.66 2405.31 1402.98C2399.53 1408.06 2389.08 1412.76 2383.37 1411Z" fill="#C2597E"/>
<path d="M2449.81 1344.74C2451.92 1342.61 2453.16 1342.79 2455.75 1344.06C2457.63 1345.92 2458.02 1347.83 2455.91 1349.95C2453.8 1352.08 2452.08 1353.02 2450.2 1351.16C2448.57 1350.07 2447.71 1346.87 2449.81 1344.74Z" fill="black"/>
<path d="M2428.52 1323.61C2430.63 1321.49 2431.78 1321.58 2434.12 1322.6C2435.77 1324.23 2436.02 1325.99 2433.91 1328.12C2431.8 1330.24 2430.12 1331.23 2428.48 1329.6C2427.02 1328.69 2426.41 1325.74 2428.52 1323.61Z" fill="black"/>
<path d="M3838.06 1872.8C3828.23 1874.76 3803.51 1873.64 3801.39 1879.28C3794.87 1894.56 3785.58 1909.38 3770.39 1917.33C3764.84 1920.24 3756.57 1924.19 3750.59 1920.15C3745.67 1916.83 3746.38 1909.94 3747.72 1904.92C3750.3 1895.25 3758.57 1888.16 3765.36 1881.31C3767 1879.66 3769.04 1878.09 3769.9 1875.87C3771.29 1872.29 3770.12 1868.39 3767.36 1865.79C3760.61 1866.79 3726.16 1871.77 3717.93 1867.57C3709.71 1863.38 3709.92 1855.36 3714.13 1848.27C3725.39 1834.79 3733.52 1834.41 3750.84 1832.57C3764.99 1835.34 3769.66 1837.86 3776.69 1844.13C3780.38 1841.59 3785.7 1824.79 3787.07 1820.66C3789.03 1814.75 3791.36 1808.27 3795.37 1803.41C3801.33 1796.19 3812.23 1794.28 3820.97 1795.45C3839.38 1797.91 3856.03 1806.6 3867.33 1821.61C3871.74 1827.47 3875.55 1834.86 3875.32 1842.39C3875.12 1849.12 3871.95 1855.6 3867.06 1860.23C3859.51 1867.38 3847.98 1870.83 3838.06 1872.8Z" fill="#CC6187"/>
<path d="M3754.37 1920.59C3750.84 1919.5 3746.91 1916.88 3746.56 1912.84C3746.2 1908.61 3750.37 1903.18 3752.34 1899.43C3755.04 1894.3 3757.54 1889.21 3761 1884.5C3769.28 1873.23 3778.84 1862.64 3789.47 1853.54C3800.51 1844.11 3814.79 1841.83 3828.28 1836.15C3838.53 1833.64 3851.19 1833.96 3859.37 1837.47C3869.43 1841.79 3874.49 1842.86 3873.81 1851.12C3874.26 1851.39 3872.86 1856.62 3873.26 1854.71C3873.54 1853.38 3873.72 1852.19 3873.81 1851.12C3873.74 1851.08 3873.62 1851.16 3873.44 1851.43C3871.59 1854.1 3869.49 1856.46 3866.92 1858.44C3861.09 1862.91 3854.11 1867.47 3846.97 1869.39C3833.72 1872.96 3818.7 1871.09 3806.75 1878.76C3799.16 1883.63 3794 1890.35 3789.01 1897.7C3785.35 1903.09 3781.23 1908.25 3776.31 1912.56C3770.53 1917.64 3760.08 1922.35 3754.37 1920.59Z" fill="#C2597E"/>
<path d="M3820.81 1854.33C3822.92 1852.2 3824.16 1852.38 3826.75 1853.65C3828.63 1855.51 3829.02 1857.41 3826.91 1859.54C3824.8 1861.66 3823.08 1862.61 3821.2 1860.74C3819.57 1859.66 3818.71 1856.45 3820.81 1854.33Z" fill="black"/>
<path d="M3799.52 1833.2C3801.63 1831.07 3802.78 1831.16 3805.12 1832.19C3806.77 1833.82 3807.02 1835.58 3804.91 1837.71C3802.8 1839.83 3801.12 1840.82 3799.48 1839.19C3798.02 1838.28 3797.41 1835.32 3799.52 1833.2Z" fill="black"/>
<path d="M1805.01 953.64C1808.95 961.288 1816.55 970.595 1815.32 979.452C1813.59 994.076 1807.95 1007.2 1809.93 1022.62C1811.48 1034.65 1815.75 1043.88 1824.55 1049.98C1831.97 1055.13 1840.81 1055.31 1848.81 1054.3C1857.45 1053.21 1865.89 1052.25 1873.66 1047.45C1880.33 1043.33 1887.17 1037.85 1892.2 1031C1894.7 1027.6 1895.42 1023.02 1894.95 1018.36C1894.39 1012.82 1892.59 1008.13 1891.12 1002.88C1889.85 998.362 1889.67 995.304 1889.85 990.59C1890.28 980.264 1895.81 967.303 1901.25 962.589C1905.91 958.559 1910.49 954.4 1915.21 950.477C1918.69 947.587 1922.25 944.531 1923.87 939.516C1925.53 934.393 1922.67 929.603 1919.12 926.82C1913.52 922.427 1907.13 919.116 1900.71 921.395C1890.74 924.932 1884.04 936.253 1878.02 946.168C1873.58 953.496 1869.82 961.512 1867.87 972.001C1864.85 967.016 1862.94 966.875 1858.5 965C1851.5 963.5 1849.5 964 1843.23 966.383C1839.64 962.802 1837.12 955.801 1835.01 950.902C1829.66 938.454 1833.62 923.6 1828.78 910.879C1825.41 902.032 1818.27 891.079 1810.65 887.252C1798.01 880.909 1788.43 900.056 1790.21 913.508C1792.2 928.548 1798.4 940.813 1805.01 953.64Z" fill="#170F27"/>
<path d="M1830.63 997.221C1834.63 991.06 1846.89 985.926 1853.56 985.877C1856.54 986.087 1859.29 986.865 1862.06 988.496C1864.75 990.084 1866.58 992.3 1868.13 995.449C1870 999.275 1871.57 1003.8 1872.11 1008.17C1872.84 1014.08 1869.05 1018.91 1865.25 1021.57C1859.47 1025.61 1852.86 1028.19 1845.99 1027.5C1839.14 1026.81 1831.15 1022.35 1828.42 1014.11C1826.38 1008 1827.44 1002.14 1830.63 997.221Z" fill="#DBCDCC"/>
<path d="M1857.23 1006.84C1857.23 1011.5 1855.22 1012.66 1849.76 1014.09C1844.47 1014.09 1841.23 1012.43 1841.23 1007.77C1841.23 1003.11 1842.36 1000.18 1847.65 1000.18C1851.48 999.586 1857.23 1002.18 1857.23 1006.84Z" fill="#170F27"/>
<path d="M1890.8 456.927C1881.34 457.357 1866.68 449.918 1862.53 456.933C1860.9 459.689 1859.35 463.995 1857.88 466.913C1853.46 475.679 1848.81 484.059 1841.69 490.762C1836.38 495.761 1819.71 494.94 1818.23 486.035C1815.79 471.271 1829.62 460.932 1835.78 449.414C1837.96 445.339 1836.85 441.354 1834.27 437.601C1831.98 434.276 1830.34 434.013 1826.21 434.169C1816.3 434.541 1807.3 441.66 1799.07 446.366C1794.18 449.163 1788.34 449.357 1782.56 444.336C1777.46 439.914 1778.46 431.434 1782.17 427.252C1789.93 421.701 1801.56 415.163 1810.19 412.24C1817.99 409.112 1825.74 408.951 1830.99 402.37C1835.55 396.65 1838.18 391.212 1841 384.516C1843.96 377.492 1847.67 370.273 1854.88 367.378C1868.55 361.897 1874.66 363.177 1883.68 367.396C1898.34 374.249 1913.11 384.677 1920.68 399.375C1927.36 412.345 1928.2 428.774 1920.82 441.664C1914.98 451.87 1902.04 456.416 1890.8 456.927Z" fill="#CC6187"/>
<path d="M1838.1 448.42C1835.97 450.58 1834.1 452.901 1832.49 455.466C1830.18 459.016 1830.19 458.598 1827.98 462.212C1825.93 465.544 1821.6 470.313 1820.33 474.046C1818.99 478.026 1818.95 485.329 1821.04 489.237C1822.17 491.348 1830.37 492.877 1832.83 493.125C1836.44 493.488 1838.69 491.416 1841.65 489.588C1844.71 487.697 1846.86 483.652 1849.18 480.907C1853.51 475.762 1855.09 469.042 1858.03 463.114C1859.3 460.555 1861.15 458.35 1863.51 456.725C1865.72 455.212 1868.15 454.961 1870.76 454.882C1878.89 454.634 1886.97 456.939 1895.09 455.55C1901.97 454.374 1908.99 451.148 1914.75 447.276C1918.58 444.699 1920.89 440.778 1923.41 436.89C1924.5 433 1924.94 428.86 1923.41 425C1921.49 420.129 1920.61 417.68 1916.15 415.093C1911.14 412.188 1906.01 410.608 1900.17 410.775C1892.95 410.982 1886.09 413.649 1879.59 416.582C1868.08 421.768 1857.71 429.439 1848.45 437.922C1844.82 441.255 1841.56 444.908 1838.1 448.42Z" fill="#B8476F"/>
<path d="M1853.7 412.711C1852.35 415.386 1851.12 415.6 1848.26 415.194C1845.9 414.004 1844.94 412.319 1846.29 409.644C1847.63 406.97 1848.98 405.54 1851.35 406.731C1853.23 407.254 1855.05 410.037 1853.7 412.711Z" fill="black"/>
<path d="M1880.49 426.211C1879.14 428.885 1878.02 429.156 1875.47 428.904C1873.4 427.862 1872.62 426.268 1873.97 423.593C1875.32 420.919 1876.61 419.457 1878.67 420.499C1880.34 420.915 1881.84 423.536 1880.49 426.211Z" fill="black"/>
<path d="M2928.1 1058.33C2920.25 1054.81 2908.5 1052.28 2903.94 1044.59C2896.17 1032.08 2892.38 1018.31 2881.22 1007.5C2872.5 999.057 2863.41 994.511 2852.72 995.232C2843.71 995.84 2836.69 1001.21 2831.06 1007C2824.99 1013.24 2819 1019.25 2815.92 1027.85C2813.28 1035.24 2811.35 1043.79 2811.69 1052.27C2811.86 1056.49 2814.16 1060.52 2817.44 1063.87C2821.32 1067.85 2825.66 1070.4 2830.08 1073.57C2833.9 1076.32 2835.94 1078.59 2838.74 1082.39C2844.85 1090.73 2848.62 1104.3 2847.3 1111.39C2846.18 1117.44 2845.19 1123.55 2843.95 1129.56C2843.04 1133.99 2842.16 1138.6 2844.02 1143.53C2845.93 1148.57 2851.15 1150.53 2855.65 1150.49C2862.77 1150.43 2869.83 1149.03 2873.43 1143.24C2879.01 1134.26 2877.19 1121.23 2875.7 1109.73C2874.6 1101.23 2872.54 1092.62 2867.52 1083.2C2872.99 1085.21 2874.57 1084.13 2879.21 1082.83C2885.62 1079.63 2886.87 1077.99 2890.28 1072.22C2895.32 1072.78 2901.66 1076.68 2906.36 1079.19C2918.31 1085.58 2924.48 1099.66 2936.2 1106.58C2944.36 1111.39 2956.77 1115.5 2965.11 1113.73C2978.95 1110.81 2974.49 1089.87 2964.7 1080.46C2953.77 1069.95 2941.27 1064.23 2928.1 1058.33Z" fill="#170F27"/>
<path d="M2880.89 1040.26C2881.61 1047.57 2875.22 1059.23 2870.05 1063.43C2867.59 1065.12 2864.95 1066.24 2861.77 1066.69C2858.67 1067.13 2855.86 1066.54 2852.69 1065.04C2848.84 1063.22 2844.79 1060.67 2841.64 1057.59C2837.38 1053.42 2837.33 1047.28 2838.64 1042.83C2840.64 1036.07 2844.2 1029.93 2850 1026.18C2855.77 1022.45 2864.8 1020.95 2872.08 1025.68C2877.48 1029.18 2880.31 1034.43 2880.89 1040.26Z" fill="#DBCDCC"/>
<path d="M2854.1 1049.34C2851.19 1045.7 2852.04 1043.54 2855.41 1039.01C2859.55 1035.71 2863.11 1034.99 2866.02 1038.63C2868.93 1042.27 2869.88 1045.27 2865.74 1048.57C2863.11 1051.42 2857 1052.98 2854.1 1049.34Z" fill="#170F27"/>
<path d="M3690.38 724.815C3698.24 731.043 3713.38 750.609 3719.06 748.579C3734.92 743.657 3752.24 741.144 3768.12 747.573C3773.94 749.926 3782.3 753.67 3783.1 760.842C3783.75 766.739 3778.04 770.659 3773.35 772.886C3764.31 777.181 3753.54 775.468 3743.93 774.723C3741.61 774.543 3739.09 774.003 3736.85 774.785C3733.21 776.047 3731 779.459 3730.8 783.244C3735.94 787.75 3762.03 810.783 3764.16 819.766C3766.28 828.75 3760.04 833.782 3751.91 835.158C3734.34 835.301 3728.79 829.353 3716.18 817.343C3709.13 804.76 3708.03 799.566 3708.26 790.149C3703.93 788.99 3687.68 795.806 3683.64 797.439C3677.88 799.77 3671.42 802.183 3665.12 802.273C3655.77 802.407 3647.25 795.334 3642.48 787.915C3632.45 772.285 3628.29 753.975 3632.42 735.64C3634.03 728.488 3637.2 720.804 3643.09 716.102C3648.35 711.899 3655.34 710.121 3662.03 710.851C3672.37 711.978 3682.46 718.533 3690.38 724.815Z" fill="#CC6187"/>
<path d="M3780.98 757.674C3782.44 761.065 3782.99 765.763 3780.13 768.641C3777.14 771.656 3770.3 771.994 3766.17 772.916C3760.51 774.18 3755.01 775.576 3749.19 775.984C3735.23 776.962 3720.97 776.537 3707.16 774.317C3692.83 772.013 3681.84 762.6 3668.78 755.995C3660.23 749.815 3652.28 739.95 3649.66 731.443C3646.44 720.98 3643.98 716.433 3650.72 711.602C3650.63 711.09 3655.52 708.773 3653.81 709.699C3652.61 710.347 3651.59 710.977 3650.72 711.602C3650.73 711.684 3650.87 711.719 3651.19 711.688C3654.42 711.367 3657.58 711.436 3660.75 712.121C3667.94 713.67 3675.93 716.033 3682.02 720.234C3693.32 728.027 3701.61 740.686 3715.19 744.829C3723.82 747.459 3732.28 747.041 3741.11 746.092C3747.59 745.395 3754.19 745.193 3760.66 746.146C3768.28 747.268 3778.63 752.181 3780.98 757.674Z" fill="#C2597E"/>
<path d="M3687.47 749.921C3684.48 749.69 3683.81 748.629 3683.11 745.835C3683.31 743.198 3684.5 741.668 3687.49 741.899C3690.48 742.131 3692.31 742.839 3692.11 745.476C3692.34 747.416 3690.45 750.153 3687.47 749.921Z" fill="black"/>
<path d="M3685.15 779.832C3682.16 779.6 3681.49 778.665 3680.75 776.211C3680.93 773.903 3682.11 772.575 3685.09 772.806C3688.08 773.038 3689.92 773.676 3689.74 775.984C3689.99 777.685 3688.13 780.063 3685.15 779.832Z" fill="black"/>
<path d="M4942.81 1043.03C4946.09 1035.08 4948.27 1023.26 4955.81 1018.46C4968.08 1010.32 4981.73 1006.12 4992.2 994.629C5000.37 985.657 5004.64 976.435 5003.6 965.773C5002.72 956.785 4997.14 949.929 4991.18 944.482C4984.76 938.604 4978.57 932.794 4969.88 929.978C4962.42 927.561 4953.81 925.895 4945.34 926.494C4941.13 926.792 4937.18 929.208 4933.92 932.585C4930.06 936.592 4927.65 941.003 4924.61 945.518C4921.98 949.414 4919.77 951.528 4916.06 954.444C4907.91 960.798 4894.45 964.978 4887.33 963.878C4881.25 962.937 4875.11 962.137 4869.07 961.08C4864.61 960.301 4859.97 959.559 4855.1 961.571C4850.13 963.626 4848.33 968.903 4848.5 973.409C4848.78 980.521 4850.39 987.534 4856.28 990.955C4865.43 996.263 4878.4 994.046 4889.85 992.213C4898.32 990.858 4906.86 988.533 4916.12 983.233C4914.27 988.763 4915.4 990.305 4916.84 994.905C4920.23 1001.21 4921.91 1002.41 4927.78 1005.65C4927.38 1010.7 4923.67 1017.16 4921.3 1021.94C4915.28 1034.07 4901.39 1040.66 4894.83 1052.59C4890.27 1060.89 4886.54 1073.42 4888.56 1081.7C4891.9 1095.44 4912.7 1090.35 4921.8 1080.29C4931.97 1069.04 4937.31 1056.37 4942.81 1043.03Z" fill="#170F27"/>
<path d="M4959.45 995.292C4952.16 996.231 4940.31 990.206 4935.96 985.159C4934.19 982.752 4933 980.146 4932.45 976.982C4931.92 973.903 4932.42 971.073 4933.82 967.858C4935.53 963.952 4937.95 959.826 4940.94 956.584C4944.97 952.205 4951.1 951.966 4955.59 953.145C4962.41 954.937 4968.66 958.304 4972.58 963.987C4976.49 969.648 4978.26 978.626 4973.75 986.045C4970.41 991.548 4965.26 994.542 4959.45 995.292Z" fill="#DBCDCC"/>
<path d="M4949.56 968.787C4953.11 965.772 4955.29 966.554 4959.92 969.788C4963.35 973.821 4964.17 977.367 4960.62 980.382C4957.07 983.398 4954.1 984.436 4950.68 980.403C4947.75 977.864 4946.01 971.803 4949.56 968.787Z" fill="#170F27"/>
<path d="M3203.92 453.048C3206.32 461.31 3211.99 471.903 3209.09 480.36C3204.58 494.379 3196.53 506.18 3195.52 521.69C3194.73 533.8 3197.15 543.671 3204.62 551.352C3210.91 557.826 3219.55 559.701 3227.6 560.244C3236.29 560.83 3244.75 561.508 3253.3 558.287C3260.64 555.521 3268.41 551.453 3274.65 545.701C3277.76 542.841 3279.34 538.484 3279.78 533.815C3280.3 528.273 3279.43 523.322 3278.99 517.897C3278.61 513.214 3279.02 510.179 3280.1 505.586C3282.51 495.535 3290.41 483.874 3296.66 480.292C3302 477.231 3307.3 474.027 3312.68 471.083C3316.65 468.913 3320.74 466.598 3323.29 461.987C3325.89 457.277 3324.01 452.028 3321.06 448.616C3316.41 443.23 3310.77 438.755 3304.03 439.76C3293.57 441.319 3284.82 451.144 3277.01 459.721C3271.24 466.06 3266.02 473.207 3262.09 483.126C3260.08 477.654 3258.24 477.151 3254.24 474.458C3247.66 471.644 3245.6 471.751 3238.99 472.888C3236.15 468.685 3235.02 461.329 3233.89 456.116C3231.02 442.873 3237.77 429.055 3235.45 415.641C3233.84 406.312 3228.94 394.194 3222.19 388.976C3211.01 380.327 3197.93 397.281 3197.1 410.824C3196.16 425.966 3199.89 439.192 3203.92 453.048Z" fill="#170F27"/>
<path d="M3220.71 500.736C3225.81 495.456 3238.83 492.77 3245.38 494C3248.27 494.777 3250.82 496.069 3253.23 498.201C3255.56 500.276 3256.93 502.802 3257.85 506.189C3258.95 510.304 3259.63 515.042 3259.32 519.438C3258.9 525.375 3254.26 529.389 3250.01 531.269C3243.56 534.125 3236.58 535.39 3229.97 533.396C3223.39 531.409 3216.4 525.498 3215.29 516.889C3214.47 510.504 3216.63 504.947 3220.71 500.736Z" fill="#DBCDCC"/>
<path d="M3244.97 515.278C3244.08 519.85 3241.88 520.604 3236.25 520.963C3231.05 519.948 3228.2 517.691 3229.09 513.119C3229.98 508.548 3231.65 505.886 3236.85 506.9C3240.72 507.056 3245.86 510.706 3244.97 515.278Z" fill="#170F27"/>
<path d="M3038 1952.29C3029.75 1956.95 3013.31 1956.94 3012.78 1965.07C3012.58 1968.26 3013.13 1972.81 3013.14 1976.08C3013.16 1985.89 3012.8 1995.47 3009.48 2004.66C3007 2011.53 2991.75 2018.33 2986.42 2011.05C2977.57 1998.98 2985.23 1983.51 2985.52 1970.45C2985.62 1965.83 2982.84 1962.78 2978.83 1960.6C2975.28 1958.67 2973.71 1959.17 2970.09 1961.18C2961.42 1965.99 2956.61 1976.4 2951.39 1984.32C2948.29 1989.03 2943.18 1991.84 2935.75 1989.97C2929.2 1988.33 2926.26 1980.32 2927.68 1974.91C2932.09 1966.45 2939.52 1955.36 2945.89 1948.85C2951.44 1942.54 2958.28 1938.89 2959.98 1930.65C2961.47 1923.49 2961.36 1917.45 2960.85 1910.2C2960.31 1902.6 2960.36 1894.48 2965.49 1888.64C2975.2 1877.57 2981.23 1875.95 2991.19 1875.64C3007.36 1875.13 3025.25 1877.75 3038.64 1887.44C3050.46 1896 3058.64 1910.27 3057.88 1925.1C3057.28 1936.85 3047.79 1946.75 3038 1952.29Z" fill="#CC6187"/>
<path d="M2987.14 1968.52C2986.22 1971.4 2985.6 1974.32 2985.32 1977.34C2984.86 1981.55 2984.68 1981.17 2984.34 1985.39C2984.03 1989.29 2982.31 1995.5 2982.87 1999.4C2983.47 2003.56 2986.74 2010.1 2990.37 2012.64C2992.33 2014.01 3000.33 2011.67 3002.65 2010.77C3006.02 2009.47 3007.1 2006.6 3008.91 2003.63C3010.79 2000.57 3010.88 1995.98 3011.7 1992.49C3013.24 1985.94 3011.61 1979.24 3011.56 1972.62C3011.54 1969.76 3012.19 1966.96 3013.56 1964.44C3014.85 1962.09 3016.9 1960.77 3019.2 1959.52C3026.34 1955.62 3034.59 1954.03 3041.2 1949.12C3046.81 1944.96 3051.61 1938.91 3055 1932.86C3057.25 1928.82 3057.54 1924.28 3058.03 1919.68C3057.24 1915.71 3055.76 1911.82 3052.66 1909.07C3048.74 1905.6 3046.85 1903.81 3041.7 1903.51C3035.92 1903.19 3030.63 1904.1 3025.5 1906.88C3019.15 1910.33 3014.23 1915.81 3009.76 1921.37C3001.84 1931.19 2996.05 1942.72 2991.63 1954.47C2989.89 1959.09 2988.64 1963.82 2987.14 1968.52Z" fill="#B8476F"/>
<path d="M2984.92 1929.61C2984.92 1932.61 2983.92 1933.36 2981.19 1934.28C2978.54 1934.29 2976.92 1933.22 2976.92 1930.23C2976.91 1927.23 2977.47 1925.35 2980.12 1925.34C2982.03 1924.96 2984.91 1926.62 2984.92 1929.61Z" fill="black"/>
<path d="M3014.92 1929.55C3014.92 1932.54 3014.04 1933.29 3011.66 1934.22C3009.34 1934.22 3007.92 1933.15 3007.92 1930.16C3007.91 1927.16 3008.4 1925.28 3010.71 1925.27C3012.39 1924.89 3014.91 1926.55 3014.92 1929.55Z" fill="black"/>
<path d="M2365.43 630.127C2379.97 628.207 2394.62 639.095 2400.91 630.55C2406.16 620.843 2404.49 608.123 2407.24 597.711C2410.35 585.956 2413.76 577.144 2424.23 571.135C2433.5 565.814 2443.2 570.845 2445.95 580.775C2448.73 590.786 2444.82 601.088 2439.5 609.481C2433.88 618.343 2426.47 627.762 2424.63 638.391C2423.46 645.141 2425.75 653.255 2432.82 655.747C2442.23 659.065 2449.84 653.743 2457.75 649.407C2465.96 644.911 2474.98 641.826 2484.23 645.629C2493.54 649.459 2495.37 660.113 2490.3 668.309C2484.53 677.652 2471.56 677.639 2461.9 678.713C2451.63 679.854 2440.73 679.532 2430.62 681.942C2425.85 683.081 2420.83 684.597 2416.8 687.497C2413.17 690.111 2410.9 693.926 2408.37 697.534C2405.37 701.815 2401.57 705.093 2397.16 707.902C2388.72 713.281 2381.17 715.688 2371.37 711.96C2356.07 706.137 2344.82 690.776 2340.11 675.645C2337.17 666.232 2335.29 655.114 2339.68 645.777C2344.14 636.27 2355.61 631.424 2365.43 630.127Z" fill="#0D0A27"/>
<path d="M2396.15 653.142C2393.15 653.157 2392.4 652.155 2391.47 649.429C2391.45 646.783 2392.52 645.16 2395.51 645.145C2398.51 645.131 2400.4 645.686 2400.41 648.331C2400.8 650.246 2399.14 653.128 2396.15 653.142Z" fill="#DBCDCC"/>
<path d="M2396.29 683.142C2393.3 683.157 2392.55 682.28 2391.61 679.895C2391.6 677.58 2392.67 676.16 2395.66 676.145C2398.66 676.131 2400.55 676.615 2400.56 678.93C2400.94 680.604 2399.29 683.128 2396.29 683.142Z" fill="#DBCDCC"/>
<path d="M2256.98 1904.33C2250.05 1891.4 2255.08 1873.85 2244.87 1870.99C2233.93 1869.49 2222.62 1875.54 2211.9 1876.64C2199.81 1877.88 2190.36 1877.79 2181.04 1870.11C2172.8 1863.31 2174.08 1852.46 2182.4 1846.38C2190.79 1840.25 2201.81 1840.28 2211.54 1842.3C2221.82 1844.44 2233.24 1848.05 2243.84 1846.03C2250.57 1844.74 2257.35 1839.73 2257.19 1832.24C2256.98 1822.26 2249.32 1817.01 2242.47 1811.14C2235.37 1805.05 2229.3 1797.69 2229.6 1787.7C2229.9 1777.64 2239.22 1772.17 2248.68 1774.02C2259.46 1776.13 2264.02 1788.26 2268.43 1796.92C2273.12 1806.13 2276.66 1816.45 2282.48 1825.06C2285.23 1829.13 2288.42 1833.29 2292.55 1836.03C2296.28 1838.51 2300.65 1839.29 2304.92 1840.38C2309.98 1841.68 2314.39 1844.09 2318.57 1847.22C2326.58 1853.22 2331.5 1859.44 2331.46 1869.92C2331.41 1886.29 2321 1902.24 2308.5 1911.98C2300.73 1918.05 2290.99 1923.73 2280.7 1922.91C2270.23 1922.09 2261.65 1913.06 2256.98 1904.33Z" fill="#0D0A27"/>
<path d="M2267.69 1867.47C2268.75 1870.27 2268.08 1871.33 2265.86 1873.16C2263.39 1874.11 2261.5 1873.68 2260.43 1870.89C2259.36 1868.09 2259.21 1866.13 2261.68 1865.18C2263.34 1864.14 2266.62 1864.68 2267.69 1867.47Z" fill="#DBCDCC"/>
<path d="M2295.71 1856.76C2296.78 1859.56 2296.22 1860.57 2294.32 1862.28C2292.16 1863.11 2290.45 1862.61 2289.38 1859.82C2288.31 1857.02 2288.1 1855.08 2290.26 1854.25C2291.69 1853.3 2294.64 1853.96 2295.71 1856.76Z" fill="#DBCDCC"/>
<path d="M3721.12 1267.25C3706.54 1268.83 3692.15 1257.6 3685.66 1265.99C3680.19 1275.58 3681.56 1288.33 3678.56 1298.68C3675.18 1310.35 3671.56 1319.08 3660.96 1324.85C3651.57 1329.95 3641.98 1324.69 3639.46 1314.7C3636.92 1304.62 3641.07 1294.42 3646.59 1286.15C3652.42 1277.42 3660.05 1268.18 3662.14 1257.6C3663.46 1250.88 3661.36 1242.71 3654.35 1240.05C3645.02 1236.52 3637.29 1241.66 3629.28 1245.81C3620.97 1250.11 3611.88 1252.98 3602.72 1248.96C3593.5 1244.92 3591.92 1234.22 3597.18 1226.15C3603.17 1216.94 3616.13 1217.26 3625.82 1216.41C3636.11 1215.51 3647 1216.09 3657.16 1213.92C3661.96 1212.89 3667.02 1211.49 3671.11 1208.69C3674.8 1206.16 3677.16 1202.4 3679.77 1198.85C3682.87 1194.64 3686.75 1191.46 3691.23 1188.75C3699.79 1183.57 3707.4 1181.34 3717.1 1185.3C3732.27 1191.48 3743.15 1207.1 3747.51 1222.34C3750.22 1231.82 3751.84 1242.98 3747.23 1252.21C3742.55 1261.61 3730.97 1266.18 3721.12 1267.25Z" fill="#0D0A27"/>
<path d="M3690.95 1243.52C3693.95 1243.57 3694.67 1244.59 3695.55 1247.34C3695.5 1249.99 3694.39 1251.58 3691.4 1251.53C3688.41 1251.47 3686.53 1250.87 3686.58 1248.23C3686.24 1246.31 3687.96 1243.46 3690.95 1243.52Z" fill="#DBCDCC"/>
<path d="M3691.51 1213.52C3694.5 1213.58 3695.23 1214.47 3696.11 1216.88C3696.07 1219.19 3694.97 1220.59 3691.98 1220.53C3688.98 1220.48 3687.11 1219.95 3687.15 1217.64C3686.8 1215.95 3688.52 1213.47 3691.51 1213.52Z" fill="#DBCDCC"/>
<path d="M5510.15 1153.53C5502.47 1147.08 5487.88 1127.1 5482.16 1128.97C5466.16 1133.45 5448.78 1135.48 5433.08 1128.61C5427.33 1126.09 5419.08 1122.12 5418.48 1114.93C5417.99 1109.01 5423.82 1105.25 5428.57 1103.16C5437.72 1099.12 5448.44 1101.13 5458.02 1102.14C5460.33 1102.39 5462.83 1103 5465.11 1102.28C5468.77 1101.12 5471.08 1097.77 5471.38 1093.99C5466.38 1089.35 5440.94 1065.59 5439.06 1056.55C5437.19 1047.51 5443.57 1042.66 5451.74 1041.51C5469.3 1041.86 5474.68 1047.96 5486.95 1060.32C5493.65 1073.09 5494.6 1078.31 5494.11 1087.72C5498.4 1089 5514.84 1082.64 5518.92 1081.12C5524.75 1078.95 5531.27 1076.72 5537.57 1076.81C5546.92 1076.93 5555.24 1084.24 5559.8 1091.79C5569.39 1107.69 5573.04 1126.11 5568.4 1144.33C5566.59 1151.43 5563.2 1159.02 5557.19 1163.56C5551.81 1167.61 5544.77 1169.19 5538.11 1168.28C5527.81 1166.86 5517.9 1160.03 5510.15 1153.53Z" fill="#CC6187"/>
<path d="M5420.51 1118.15C5419.15 1114.72 5418.73 1110.01 5421.66 1107.21C5424.74 1104.28 5431.58 1104.14 5435.74 1103.33C5441.43 1102.22 5446.97 1100.98 5452.8 1100.74C5466.78 1100.15 5481.02 1100.97 5494.77 1103.58C5509.03 1106.28 5519.75 1116 5532.62 1122.96C5540.99 1129.38 5548.67 1139.46 5551.05 1148.04C5553.98 1158.59 5556.3 1163.2 5549.43 1167.84C5549.51 1168.36 5544.55 1170.54 5546.29 1169.66C5547.5 1169.04 5548.55 1168.44 5549.43 1167.84C5549.42 1167.76 5549.28 1167.72 5548.97 1167.74C5545.72 1167.97 5542.57 1167.82 5539.42 1167.04C5532.28 1165.3 5524.36 1162.71 5518.39 1158.34C5507.31 1150.24 5499.38 1137.35 5485.91 1132.83C5477.37 1129.96 5468.9 1130.14 5460.04 1130.84C5453.54 1131.36 5446.94 1131.38 5440.5 1130.24C5432.92 1128.91 5422.71 1123.71 5420.51 1118.15Z" fill="#C2597E"/>
<path d="M5513.77 1128.51C5516.75 1128.83 5517.39 1129.91 5518.02 1132.72C5517.74 1135.35 5516.5 1136.85 5513.52 1136.53C5510.54 1136.22 5508.73 1135.46 5509.01 1132.83C5508.83 1130.88 5510.79 1128.2 5513.77 1128.51Z" fill="black"/>
<path d="M5516.92 1098.68C5519.9 1098.99 5520.55 1099.95 5521.22 1102.42C5520.97 1104.72 5519.76 1106.02 5516.78 1105.7C5513.8 1105.39 5511.98 1104.7 5512.22 1102.4C5512.02 1100.69 5513.95 1098.36 5516.92 1098.68Z" fill="black"/>
<path d="M7091.47 521.423C7086.01 529.834 7067.97 546.757 7070.52 552.212C7076.92 567.545 7081.06 584.542 7076.16 600.966C7074.36 606.976 7071.42 615.656 7064.36 617.126C7058.55 618.335 7054.11 613.013 7051.45 608.555C7046.32 599.959 7047.01 589.081 7046.84 579.446C7046.8 577.121 7047.1 574.561 7046.11 572.395C7044.51 568.899 7040.91 567.014 7037.12 567.176C7033.12 572.714 7012.65 600.866 7003.91 603.831C6995.17 606.796 6989.57 601.054 6987.43 593.09C6985.63 575.618 6991.03 569.524 7001.79 555.838C7013.65 547.633 7018.72 546.046 7028.12 545.384C7028.86 540.972 7020.54 525.435 7018.54 521.569C7015.67 516.049 7012.66 509.851 7011.98 503.588C7010.96 494.288 7017.2 485.14 7024.13 479.696C7038.75 468.226 7056.58 462.359 7075.22 464.737C7082.5 465.664 7090.45 468.099 7095.68 473.515C7100.36 478.356 7102.79 485.148 7102.7 491.878C7102.55 502.275 7096.98 512.939 7091.47 521.423Z" fill="#CC6187"/>
<path d="M7067.31 614.722C7064.08 616.49 7059.45 617.482 7056.32 614.911C7053.03 612.217 7052.05 605.439 7050.74 601.414C7048.95 595.898 7047.04 590.555 7046.08 584.797C7043.79 570.996 7042.87 556.755 7043.78 542.795C7044.72 528.313 7053.05 516.484 7058.39 502.858C7063.74 493.765 7072.81 484.916 7081.03 481.506C7091.14 477.313 7095.44 474.44 7100.88 480.689C7101.38 480.555 7104.15 485.206 7103.07 483.589C7102.31 482.458 7101.59 481.497 7100.88 480.689C7100.8 480.71 7100.78 480.854 7100.84 481.166C7101.47 484.356 7101.7 487.504 7101.31 490.729C7100.45 498.027 7098.85 506.205 7095.24 512.664C7088.55 524.647 7076.73 534.098 7073.89 548.011C7072.09 556.845 7073.3 565.228 7075.08 573.935C7076.39 580.32 7077.21 586.871 7076.87 593.403C7076.47 601.092 7072.56 611.858 7067.31 614.722Z" fill="#C2597E"/>
<path d="M7066.2 520.89C7066.15 517.896 7067.15 517.132 7069.86 516.164C7072.5 516.118 7074.14 517.162 7074.19 520.156C7074.24 523.151 7073.71 525.045 7071.07 525.091C7069.16 525.503 7066.25 523.884 7066.2 520.89Z" fill="black"/>
<path d="M7036.21 521.405C7036.16 518.411 7037.02 517.649 7039.4 516.686C7041.71 516.647 7043.15 517.694 7043.2 520.688C7043.25 523.683 7042.79 525.576 7040.47 525.616C7038.8 526.024 7036.26 524.399 7036.21 521.405Z" fill="black"/>
<path d="M6790.21 1955.32C6780.47 1957.67 6755.73 1957.55 6753.83 1963.27C6747.94 1978.8 6739.25 1993.99 6724.4 2002.55C6718.97 2005.68 6710.87 2009.96 6704.73 2006.17C6699.68 2003.06 6700.11 1996.14 6701.25 1991.07C6703.43 1981.3 6711.41 1973.88 6717.91 1966.77C6719.48 1965.05 6721.46 1963.4 6722.23 1961.15C6723.47 1957.51 6722.15 1953.66 6719.29 1951.17C6712.58 1952.44 6678.36 1958.82 6669.97 1954.96C6661.59 1951.1 6661.47 1943.08 6665.39 1935.83C6676.1 1921.9 6684.2 1921.19 6701.43 1918.65C6715.69 1920.85 6720.46 1923.18 6727.74 1929.16C6731.31 1926.47 6735.95 1909.47 6737.15 1905.28C6738.87 1899.3 6740.94 1892.73 6744.75 1887.71C6750.41 1880.26 6761.22 1877.9 6770 1878.72C6788.5 1880.44 6805.49 1888.44 6817.39 1902.98C6822.03 1908.66 6826.13 1915.89 6826.21 1923.42C6826.28 1930.16 6823.37 1936.76 6818.68 1941.58C6811.42 1949.03 6800.05 1952.94 6790.21 1955.32Z" fill="#CC6187"/>
<path d="M6708.53 2006.46C6704.96 2005.51 6700.92 2003.05 6700.41 1999.03C6699.88 1994.82 6703.82 1989.22 6705.64 1985.4C6708.13 1980.16 6710.42 1974.97 6713.68 1970.13C6721.51 1958.53 6730.63 1947.56 6740.89 1938.04C6751.53 1928.17 6765.71 1925.31 6778.96 1919.09C6789.09 1916.17 6801.76 1915.98 6810.08 1919.15C6820.3 1923.06 6825.4 1923.93 6825.05 1932.21C6825.51 1932.46 6824.32 1937.74 6824.65 1935.82C6824.87 1934.47 6825.01 1933.28 6825.05 1932.21C6824.98 1932.17 6824.87 1932.26 6824.7 1932.53C6822.96 1935.27 6820.96 1937.72 6818.46 1939.8C6812.82 1944.5 6806.04 1949.34 6798.98 1951.55C6785.88 1955.65 6770.8 1954.39 6759.17 1962.54C6751.78 1967.71 6746.9 1974.63 6742.21 1982.18C6738.77 1987.71 6734.86 1993.04 6730.12 1997.55C6724.55 2002.86 6714.31 2007.99 6708.53 2006.46Z" fill="#C2597E"/>
<path d="M6772.23 1937.56C6774.25 1935.35 6775.5 1935.48 6778.14 1936.64C6780.09 1938.42 6780.56 1940.31 6778.54 1942.52C6776.52 1944.73 6774.83 1945.74 6772.87 1943.95C6771.2 1942.94 6770.21 1939.77 6772.23 1937.56Z" fill="black"/>
<path d="M6750.1 1917.31C6752.12 1915.1 6753.27 1915.14 6755.66 1916.07C6757.36 1917.64 6757.68 1919.38 6755.66 1921.59C6753.64 1923.8 6752.01 1924.86 6750.3 1923.3C6748.8 1922.45 6748.07 1919.52 6750.1 1917.31Z" fill="black"/>
<path d="M4820.25 1764.43C4821.33 1754.46 4829.81 1731.22 4825.07 1727.5C4812.45 1716.7 4801.09 1703.4 4798.06 1686.53C4796.95 1680.35 4795.66 1671.28 4801.3 1666.78C4805.94 1663.09 4812.3 1665.83 4816.69 1668.61C4825.14 1673.97 4829.43 1683.99 4833.92 1692.52C4835.01 1694.58 4835.9 1696.99 4837.76 1698.48C4840.76 1700.88 4844.83 1700.94 4848.14 1699.09C4849.21 1692.34 4854.78 1657.98 4861.25 1651.39C4867.72 1644.8 4875.3 1647.4 4880.8 1653.55C4890.29 1668.33 4888.22 1676.2 4884.78 1693.28C4877.89 1705.95 4874.09 1709.65 4866 1714.48C4867.32 1718.75 4881.75 1728.87 4885.29 1731.41C4890.33 1735.05 4895.82 1739.22 4899.25 1744.5C4904.35 1752.35 4902.91 1763.32 4899.17 1771.31C4891.3 1788.14 4878.03 1801.42 4860.32 1807.7C4853.41 1810.15 4845.22 1811.56 4838.1 1809.09C4831.74 1806.88 4826.51 1801.91 4823.56 1795.86C4819 1786.52 4819.17 1774.49 4820.25 1764.43Z" fill="#CC6187"/>
<path d="M4799.75 1670.26C4801.84 1667.22 4805.52 1664.25 4809.48 1665.13C4813.62 1666.06 4817.56 1671.67 4820.54 1674.67C4824.63 1678.78 4828.74 1682.69 4832.19 1687.4C4840.46 1698.68 4847.7 1710.98 4853.19 1723.85C4858.88 1737.2 4856.78 1751.51 4858.15 1766.08C4857.48 1776.61 4853.38 1788.6 4847.57 1795.35C4840.44 1803.65 4837.9 1808.15 4830.22 1805.03C4829.84 1805.38 4825.27 1802.48 4826.96 1803.43C4828.15 1804.1 4829.23 1804.63 4830.22 1805.03C4830.29 1804.98 4830.24 1804.84 4830.05 1804.59C4828.05 1802.02 4826.43 1799.32 4825.31 1796.26C4822.79 1789.36 4820.53 1781.34 4820.84 1773.95C4821.41 1760.24 4827.69 1746.47 4823.96 1732.77C4821.59 1724.07 4816.72 1717.14 4811.21 1710.17C4807.16 1705.06 4803.47 1699.58 4800.83 1693.6C4797.72 1686.56 4796.36 1675.18 4799.75 1670.26Z" fill="#C2597E"/>
<path d="M4843.05 1753.51C4844.45 1756.16 4843.9 1757.29 4841.92 1759.38C4839.58 1760.61 4837.65 1760.42 4836.25 1757.77C4834.85 1755.12 4834.47 1753.19 4836.81 1751.96C4838.33 1750.73 4841.65 1750.86 4843.05 1753.51Z" fill="black"/>
<path d="M4869.59 1739.53C4870.99 1742.18 4870.55 1743.25 4868.87 1745.18C4866.82 1746.26 4865.07 1745.97 4863.67 1743.32C4862.28 1740.67 4861.84 1738.77 4863.88 1737.69C4865.19 1736.57 4868.19 1736.88 4869.59 1739.53Z" fill="black"/>
<path d="M4427.44 705.001C4419.63 698.711 4404.65 679.027 4398.96 681.012C4383.05 685.808 4365.72 688.185 4349.88 681.631C4344.09 679.232 4335.75 675.423 4335.01 668.245C4334.4 662.343 4340.15 658.468 4344.86 656.277C4353.93 652.054 4364.69 653.852 4374.29 654.672C4376.6 654.87 4379.12 655.431 4381.38 654.666C4385.02 653.433 4387.26 650.038 4387.49 646.255C4382.39 641.709 4356.47 618.472 4354.42 609.471C4352.36 600.471 4358.65 595.488 4366.79 594.177C4384.35 594.172 4389.86 600.163 4402.38 612.273C4409.33 624.911 4410.39 630.113 4410.08 639.528C4414.4 640.721 4430.7 634.034 4434.75 632.433C4440.54 630.146 4447.01 627.785 4453.31 627.744C4462.67 627.684 4471.13 634.824 4475.84 642.28C4485.75 657.989 4489.76 676.331 4485.49 694.633C4483.83 701.772 4480.59 709.431 4474.67 714.086C4469.38 718.247 4462.37 719.97 4455.69 719.188C4445.36 717.979 4435.32 711.345 4427.44 705.001Z" fill="#CC6187"/>
<path d="M4337.1 671.429C4335.68 668.027 4335.16 663.324 4338.04 660.469C4341.05 657.478 4347.9 657.194 4352.03 656.304C4357.71 655.085 4363.22 653.732 4369.04 653.37C4383 652.502 4397.26 653.04 4411.06 655.369C4425.37 657.785 4436.28 667.284 4449.29 673.992C4457.79 680.239 4465.67 690.166 4468.22 698.694C4471.36 709.182 4473.77 713.749 4467 718.526C4467.08 719.039 4462.17 721.317 4463.89 720.404C4465.09 719.766 4466.12 719.144 4467 718.526C4466.99 718.444 4466.85 718.407 4466.53 718.436C4463.29 718.732 4460.14 718.637 4456.97 717.928C4449.8 716.322 4441.83 713.896 4435.77 709.648C4424.53 701.766 4416.34 689.042 4402.79 684.792C4394.19 682.094 4385.72 682.445 4376.88 683.325C4370.4 683.971 4363.8 684.121 4357.33 683.117C4349.72 681.935 4339.42 676.941 4337.1 671.429Z" fill="#C2597E"/>
<path d="M4430.56 679.918C4433.54 680.173 4434.2 681.239 4434.88 684.038C4434.66 686.674 4433.45 688.195 4430.47 687.94C4427.49 687.685 4425.65 686.963 4425.88 684.327C4425.67 682.385 4427.57 679.663 4430.56 679.918Z" fill="black"/>
<path d="M4433.11 650.027C4436.09 650.282 4436.76 651.223 4437.48 653.682C4437.28 655.989 4436.09 657.308 4433.11 657.053C4430.13 656.798 4428.29 656.145 4428.49 653.839C4428.25 652.136 4430.13 649.772 4433.11 650.027Z" fill="black"/>
<path d="M6201.1 1218.54C6196.62 1211.19 6188.38 1202.45 6188.97 1193.53C6189.65 1178.82 6194.34 1165.32 6191.26 1150.09C6188.85 1138.19 6183.94 1129.3 6174.72 1123.84C6166.95 1119.24 6158.12 1119.69 6150.21 1121.27C6141.67 1122.97 6133.32 1124.53 6125.92 1129.87C6119.55 1134.46 6113.13 1140.42 6108.6 1147.6C6106.35 1151.18 6105.96 1155.8 6106.76 1160.42C6107.71 1165.9 6109.84 1170.45 6111.69 1175.58C6113.28 1180 6113.67 1183.03 6113.83 1187.75C6114.14 1198.08 6109.56 1211.4 6104.46 1216.49C6100.1 1220.85 6095.83 1225.32 6091.41 1229.57C6088.14 1232.7 6084.8 1236.01 6083.55 1241.12C6082.26 1246.35 6085.45 1250.93 6089.19 1253.45C6095.09 1257.43 6101.7 1260.28 6107.95 1257.54C6117.63 1253.3 6123.51 1241.53 6128.8 1231.21C6132.71 1223.58 6135.89 1215.32 6137.09 1204.72C6140.46 1209.47 6142.37 1209.48 6146.93 1211.03C6154.02 1212.03 6155.98 1211.39 6162.06 1208.56C6165.9 1211.88 6168.92 1218.68 6171.37 1223.41C6177.6 1235.45 6174.7 1250.55 6180.44 1262.89C6184.44 1271.47 6192.34 1281.89 6200.22 1285.16C6213.27 1290.58 6221.46 1270.8 6218.72 1257.51C6215.67 1242.65 6208.61 1230.86 6201.1 1218.54Z" fill="#170F27"/>
<path d="M6172.43 1176.9C6168.88 1183.33 6157.01 1189.33 6150.37 1189.85C6147.38 1189.86 6144.58 1189.28 6141.7 1187.85C6138.9 1186.46 6136.92 1184.38 6135.15 1181.35C6133.01 1177.67 6131.12 1173.27 6130.27 1168.95C6129.12 1163.11 6132.55 1158.02 6136.16 1155.09C6141.63 1150.65 6148.04 1147.6 6154.94 1147.8C6161.82 1147.99 6170.11 1151.87 6173.43 1159.89C6175.89 1165.84 6175.26 1171.77 6172.43 1176.9Z" fill="#DBCDCC"/>
<path d="M6145.2 1169.21C6144.87 1164.56 6146.79 1163.26 6152.14 1161.44C6157.42 1161.06 6160.76 1162.49 6161.1 1167.14C6161.43 1171.79 6160.51 1174.79 6155.24 1175.17C6151.46 1176.03 6145.54 1173.86 6145.2 1169.21Z" fill="#170F27"/>
<path d="M6836.6 1224.82C6844.58 1228.03 6856.42 1230.1 6861.29 1237.6C6869.54 1249.79 6873.86 1263.41 6885.45 1273.77C6894.49 1281.86 6903.75 1286.05 6914.41 1284.91C6923.38 1283.94 6930.19 1278.3 6935.58 1272.3C6941.4 1265.82 6947.16 1259.58 6949.89 1250.86C6952.24 1243.38 6953.83 1234.76 6953.16 1226.3C6952.82 1222.09 6950.37 1218.15 6946.96 1214.93C6942.92 1211.1 6938.49 1208.73 6933.94 1205.73C6930.02 1203.14 6927.89 1200.95 6924.94 1197.27C6918.51 1189.17 6914.21 1175.76 6915.25 1168.63C6916.13 1162.53 6916.88 1156.39 6917.88 1150.34C6918.62 1145.88 6919.32 1141.23 6917.26 1136.38C6915.16 1131.42 6909.87 1129.67 6905.37 1129.88C6898.26 1130.22 6891.26 1131.9 6887.89 1137.83C6882.67 1147.02 6885 1159.97 6886.94 1171.4C6888.37 1179.85 6890.77 1188.38 6896.15 1197.59C6890.61 1195.79 6889.08 1196.93 6884.49 1198.42C6878.21 1201.86 6877.03 1203.55 6873.85 1209.45C6868.79 1209.09 6862.3 1205.45 6857.5 1203.12C6845.31 1197.21 6838.59 1183.38 6826.61 1176.93C6818.27 1172.44 6805.71 1168.83 6797.44 1170.92C6783.73 1174.39 6789.01 1195.13 6799.16 1204.15C6810.5 1214.22 6823.21 1219.45 6836.6 1224.82Z" fill="#170F27"/>
<path d="M6884.49 1241.02C6883.48 1233.75 6889.4 1221.84 6894.41 1217.44C6896.8 1215.65 6899.39 1214.44 6902.55 1213.86C6905.63 1213.3 6908.46 1213.78 6911.69 1215.15C6915.61 1216.82 6919.76 1219.21 6923.03 1222.16C6927.44 1226.16 6927.74 1232.29 6926.6 1236.79C6924.87 1243.63 6921.56 1249.9 6915.91 1253.88C6910.29 1257.83 6901.32 1259.68 6893.86 1255.25C6888.33 1251.96 6885.29 1246.83 6884.49 1241.02Z" fill="#DBCDCC"/>
<path d="M6910.9 1230.89C6913.95 1234.42 6913.19 1236.61 6909.99 1241.27C6905.99 1244.73 6902.45 1245.58 6899.41 1242.06C6896.36 1238.54 6895.29 1235.58 6899.3 1232.12C6901.81 1229.17 6907.85 1227.37 6910.9 1230.89Z" fill="#170F27"/>
<path d="M6151.03 1720.11C6160.45 1719.01 6175.59 1725.38 6179.23 1718.09C6180.66 1715.22 6181.9 1710.82 6183.16 1707.8C6186.94 1698.74 6190.97 1690.05 6197.6 1682.85C6202.54 1677.49 6219.23 1677.12 6221.34 1685.89C6224.83 1700.44 6211.77 1711.75 6206.45 1723.67C6204.57 1727.89 6205.96 1731.79 6208.81 1735.35C6211.33 1738.5 6212.98 1738.65 6217.09 1738.2C6226.95 1737.12 6235.41 1729.37 6243.29 1724.09C6247.97 1720.95 6253.77 1720.34 6259.9 1724.93C6265.3 1728.98 6264.91 1737.51 6261.51 1741.95C6254.17 1748.04 6243.03 1755.39 6234.63 1758.92C6227.08 1762.6 6219.36 1763.32 6214.6 1770.25C6210.45 1776.29 6208.22 1781.9 6205.88 1788.78C6203.43 1796 6200.25 1803.46 6193.26 1806.87C6180.02 1813.31 6173.84 1812.47 6164.53 1808.91C6149.43 1803.12 6133.94 1793.77 6125.35 1779.65C6117.76 1767.2 6115.74 1750.87 6122.18 1737.48C6127.28 1726.89 6139.86 1721.43 6151.03 1720.11Z" fill="#CC6187"/>
<path d="M6204.21 1724.83C6206.18 1722.52 6207.87 1720.08 6209.3 1717.4C6211.35 1713.7 6211.37 1714.11 6213.32 1710.35C6215.12 1706.88 6219.11 1701.82 6220.1 1698C6221.16 1693.94 6220.67 1686.65 6218.31 1682.9C6217.03 1680.87 6208.74 1679.94 6206.26 1679.86C6202.65 1679.76 6200.54 1681.99 6197.72 1684.02C6194.81 1686.13 6192.95 1690.32 6190.84 1693.22C6186.88 1698.66 6185.79 1705.48 6183.28 1711.6C6182.19 1714.24 6180.51 1716.57 6178.27 1718.36C6176.18 1720.03 6173.77 1720.46 6171.17 1720.72C6163.08 1721.55 6154.85 1719.83 6146.85 1721.79C6140.08 1723.46 6133.31 1727.18 6127.84 1731.45C6124.2 1734.3 6122.17 1738.37 6119.94 1742.43C6119.13 1746.39 6118.99 1750.55 6120.79 1754.29C6123.06 1759.01 6124.11 1761.39 6128.74 1763.65C6133.94 1766.19 6139.18 1767.4 6144.98 1766.82C6152.17 1766.1 6158.83 1762.94 6165.11 1759.55C6176.21 1753.56 6186.01 1745.17 6194.63 1736.04C6198.02 1732.46 6201.01 1728.58 6204.21 1724.83Z" fill="#B8476F"/>
<path d="M6191.2 1761.56C6192.36 1758.8 6193.57 1758.5 6196.45 1758.7C6198.89 1759.72 6199.97 1761.33 6198.82 1764.09C6197.66 1766.86 6196.42 1768.38 6193.98 1767.36C6192.06 1766.97 6190.05 1764.33 6191.2 1761.56Z" fill="black"/>
<path d="M6163.52 1750.01C6164.67 1747.25 6165.77 1746.9 6168.33 1746.97C6170.46 1747.86 6171.36 1749.39 6170.21 1752.16C6169.05 1754.92 6167.87 1756.47 6165.74 1755.58C6164.04 1755.29 6162.36 1752.78 6163.52 1750.01Z" fill="black"/>
<path d="M3968.88 342.268C3973.15 349.74 3981.14 358.714 3980.29 367.615C3979.19 382.299 3974.11 395.654 3976.75 410.971C3978.81 422.931 3983.47 431.964 3992.53 437.688C4000.16 442.512 4009 442.317 4016.95 440.964C4025.54 439.505 4033.93 438.188 4041.48 433.059C4047.97 428.655 4054.57 422.886 4059.3 415.834C4061.65 412.328 4062.18 407.722 4061.51 403.079C4060.72 397.57 4058.72 392.959 4057.02 387.786C4055.56 383.322 4055.25 380.274 4055.23 375.557C4055.22 365.222 4060.18 352.036 4065.43 347.094C4069.9 342.869 4074.3 338.518 4078.85 334.397C4082.2 331.36 4085.64 328.155 4087.04 323.075C4088.47 317.887 4085.41 313.223 4081.75 310.594C4075.97 306.444 4069.44 303.409 4063.12 305.961C4053.32 309.921 4047.1 321.518 4041.52 331.681C4037.39 339.193 4033.98 347.362 4032.47 357.925C4029.24 353.073 4027.33 353.014 4022.81 351.33C4015.76 350.131 4013.78 350.716 4007.62 353.365C4003.88 349.941 4001.06 343.054 3998.74 338.249C3992.86 326.042 3996.19 311.031 3990.81 298.529C3987.06 289.834 3979.46 279.197 3971.68 275.699C3958.79 269.902 3950.04 289.441 3952.39 302.804C3955.02 317.745 3961.73 329.735 3968.88 342.268Z" fill="#170F27"/>
<path d="M3996.35 384.714C4000.08 378.387 4012.11 372.734 4018.77 372.4C4021.75 372.483 4024.54 373.141 4027.38 374.653C4030.13 376.124 4032.06 378.26 4033.73 381.341C4035.77 385.083 4037.53 389.532 4038.26 393.879C4039.24 399.749 4035.66 404.738 4031.97 407.557C4026.37 411.84 4019.88 414.701 4012.98 414.306C4006.12 413.913 3997.94 409.797 3994.86 401.685C3992.57 395.669 3993.37 389.76 3996.35 384.714Z" fill="#DBCDCC"/>
<path d="M4023.34 393.186C4023.54 397.84 4021.58 399.086 4016.18 400.752C4010.89 400.978 4007.59 399.451 4007.39 394.796C4007.19 390.142 4008.19 387.164 4013.48 386.938C4017.28 386.184 4023.14 388.532 4023.34 393.186Z" fill="#170F27"/>
<path d="M4336.91 1581.56C4328.62 1575.91 4312.12 1557.48 4306.61 1559.91C4291.13 1565.95 4274.04 1569.7 4257.74 1564.42C4251.77 1562.49 4243.16 1559.35 4241.85 1552.26C4240.78 1546.42 4246.2 1542.1 4250.72 1539.54C4259.43 1534.61 4270.29 1535.55 4279.92 1535.61C4282.25 1535.62 4284.8 1535.98 4286.99 1535.04C4290.52 1533.52 4292.49 1529.96 4292.41 1526.17C4286.97 1522.04 4259.3 1500.94 4256.53 1492.13C4253.77 1483.32 4259.64 1477.85 4267.65 1475.9C4285.16 1474.5 4291.13 1480.04 4304.56 1491.12C4312.49 1503.16 4313.96 1508.26 4314.41 1517.67C4318.8 1518.52 4334.53 1510.56 4338.44 1508.64C4344.02 1505.9 4350.29 1503.04 4356.56 1502.5C4365.88 1501.69 4374.89 1508.14 4380.17 1515.2C4391.3 1530.07 4396.76 1548.04 4393.95 1566.62C4392.86 1573.87 4390.24 1581.76 4384.7 1586.87C4379.76 1591.44 4372.91 1593.71 4366.18 1593.46C4355.79 1593.08 4345.26 1587.26 4336.91 1581.56Z" fill="#CC6187"/>
<path d="M4244.19 1555.26C4242.49 1551.99 4241.61 1547.34 4244.25 1544.26C4247.02 1541.04 4253.82 1540.22 4257.87 1539C4263.43 1537.34 4268.81 1535.55 4274.59 1534.73C4288.44 1532.75 4302.7 1532.16 4316.64 1533.39C4331.09 1534.66 4342.73 1543.26 4356.23 1548.92C4365.19 1554.47 4373.83 1563.74 4377.05 1572.04C4381.01 1582.25 4383.78 1586.61 4377.41 1591.91C4377.53 1592.41 4372.82 1595.07 4374.46 1594.02C4375.61 1593.29 4376.59 1592.59 4377.41 1591.91C4377.39 1591.83 4377.25 1591.8 4376.94 1591.85C4373.73 1592.4 4370.58 1592.56 4367.36 1592.11C4360.09 1591.07 4351.95 1589.29 4345.58 1585.53C4333.75 1578.57 4324.57 1566.53 4310.73 1563.37C4301.94 1561.37 4293.53 1562.39 4284.78 1563.97C4278.37 1565.12 4271.8 1565.8 4265.28 1565.31C4257.6 1564.74 4246.93 1560.58 4244.19 1555.26Z" fill="#C2597E"/>
<path d="M4338.02 1556.31C4341.01 1556.33 4341.75 1557.34 4342.66 1560.08C4342.65 1562.72 4341.56 1564.33 4338.57 1564.31C4335.57 1564.3 4333.69 1563.72 4333.71 1561.08C4333.34 1559.16 4335.02 1556.29 4338.02 1556.31Z" fill="black"/>
<path d="M4338.19 1526.31C4341.19 1526.33 4341.93 1527.21 4342.84 1529.61C4342.82 1531.92 4341.74 1533.33 4338.75 1533.32C4335.76 1533.3 4333.87 1532.79 4333.89 1530.48C4333.52 1528.8 4335.2 1526.29 4338.19 1526.31Z" fill="black"/>
<path d="M4174.39 1029.37C4171.69 1037.53 4170.36 1049.48 4163.18 1054.8C4151.52 1063.8 4138.21 1068.97 4128.59 1081.18C4121.08 1090.71 4117.48 1100.21 4119.28 1110.77C4120.8 1119.67 4126.86 1126.11 4133.19 1131.12C4140.01 1136.53 4146.6 1141.88 4155.47 1144.07C4163.09 1145.94 4171.79 1146.99 4180.19 1145.79C4184.37 1145.19 4188.15 1142.5 4191.15 1138.9C4194.72 1134.62 4196.81 1130.05 4199.52 1125.33C4201.86 1121.26 4203.92 1118.99 4207.41 1115.81C4215.08 1108.89 4228.2 1103.76 4235.38 1104.35C4241.52 1104.86 4247.7 1105.21 4253.8 1105.84C4258.3 1106.3 4262.98 1106.7 4267.7 1104.35C4272.51 1101.94 4273.93 1096.55 4273.44 1092.07C4272.65 1085 4270.54 1078.11 4264.42 1075.12C4254.91 1070.48 4242.14 1073.62 4230.85 1076.27C4222.5 1078.23 4214.15 1081.16 4205.29 1087.1C4206.73 1081.46 4205.5 1080 4203.73 1075.51C4199.9 1069.47 4198.14 1068.39 4192.05 1065.58C4192.1 1060.51 4195.33 1053.81 4197.35 1048.87C4202.49 1036.33 4215.87 1028.77 4221.56 1016.4C4225.52 1007.8 4228.35 995.037 4225.74 986.915C4221.42 973.452 4201.04 980.018 4192.69 990.705C4183.34 1002.65 4178.92 1015.66 4174.39 1029.37Z" fill="#170F27"/>
<path d="M4161.21 1078.17C4168.41 1076.72 4180.66 1081.88 4185.36 1086.6C4187.3 1088.88 4188.67 1091.39 4189.45 1094.51C4190.2 1097.54 4189.9 1100.4 4188.73 1103.71C4187.31 1107.72 4185.18 1112.01 4182.44 1115.46C4178.73 1120.12 4172.63 1120.79 4168.07 1119.94C4161.13 1118.64 4154.66 1115.73 4150.34 1110.34C4146.04 1104.97 4143.64 1096.14 4147.6 1088.42C4150.54 1082.69 4155.47 1079.34 4161.21 1078.17Z" fill="#DBCDCC"/>
<path d="M4172.97 1103.9C4169.64 1107.16 4167.4 1106.54 4162.56 1103.65C4158.85 1099.87 4157.78 1096.39 4161.1 1093.13C4164.43 1089.87 4167.31 1088.62 4171.02 1092.4C4174.12 1094.72 4176.3 1100.64 4172.97 1103.9Z" fill="#170F27"/>
<path d="M3319.67 1561.86C3316.68 1553.79 3310.26 1543.63 3312.55 1534.99C3316.05 1520.69 3323.23 1508.34 3323.13 1492.8C3323.05 1480.66 3319.94 1470.99 3311.94 1463.86C3305.2 1457.85 3296.44 1456.6 3288.38 1456.64C3279.67 1456.67 3271.18 1456.6 3262.88 1460.42C3255.76 1463.71 3248.31 1468.32 3242.49 1474.5C3239.6 1477.58 3238.33 1482.04 3238.23 1486.73C3238.11 1492.29 3239.32 1497.17 3240.15 1502.55C3240.87 1507.19 3240.67 1510.25 3239.92 1514.91C3238.24 1525.1 3231.19 1537.3 3225.21 1541.32C3220.1 1544.75 3215.05 1548.33 3209.89 1551.65C3206.09 1554.1 3202.18 1556.7 3199.96 1561.48C3197.7 1566.37 3199.95 1571.47 3203.14 1574.66C3208.16 1579.7 3214.11 1583.76 3220.76 1582.27C3231.08 1579.97 3239.11 1569.55 3246.28 1560.43C3251.58 1553.7 3256.28 1546.2 3259.49 1536.02C3261.89 1541.34 3263.76 1541.71 3267.94 1544.11C3274.71 1546.44 3276.75 1546.19 3283.26 1544.58C3286.39 1548.57 3288.05 1555.83 3289.55 1560.95C3293.36 1573.95 3287.62 1588.22 3290.89 1601.43C3293.16 1610.62 3298.92 1622.36 3306.02 1627.08C3317.79 1634.91 3329.62 1617.06 3329.49 1603.49C3329.34 1588.32 3324.67 1575.4 3319.67 1561.86Z" fill="#170F27"/>
<path d="M3299.51 1515.5C3294.79 1521.13 3282 1524.74 3275.38 1523.98C3272.45 1523.41 3269.8 1522.31 3267.25 1520.35C3264.78 1518.45 3263.23 1516.03 3262.08 1512.71C3260.68 1508.69 3259.66 1504.01 3259.66 1499.6C3259.65 1493.65 3264 1489.32 3268.1 1487.14C3274.32 1483.83 3281.2 1482.07 3287.93 1483.58C3294.64 1485.09 3302.03 1490.49 3303.76 1499C3305.03 1505.31 3303.27 1511.01 3299.51 1515.5Z" fill="#DBCDCC"/>
<path d="M3274.27 1502.73C3274.83 1498.1 3276.97 1497.19 3282.56 1496.43C3287.82 1497.07 3290.83 1499.12 3290.26 1503.75C3289.7 1508.37 3288.22 1511.14 3282.97 1510.5C3279.1 1510.62 3273.7 1507.35 3274.27 1502.73Z" fill="#170F27"/>
<path d="M4899.87 310.593C4907.77 305.352 4924.16 304.192 4924.11 296.042C4924.09 292.84 4923.21 288.348 4922.97 285.088C4922.25 275.298 4921.91 265.724 4924.57 256.31C4926.56 249.29 4941.28 241.415 4947.12 248.294C4956.81 259.698 4950.27 275.68 4950.92 288.724C4951.15 293.339 4954.14 296.187 4958.29 298.075C4961.97 299.746 4963.51 299.13 4966.97 296.87C4975.27 291.453 4979.32 280.721 4983.96 272.45C4986.72 267.531 4991.62 264.365 4999.17 265.693C5005.81 266.863 5009.32 274.648 5008.29 280.142C5004.5 288.893 4997.88 300.487 4991.98 307.434C4986.91 314.128 4980.35 318.252 4979.23 326.596C4978.26 333.848 4978.8 339.866 4979.83 347.059C4980.91 354.604 4981.45 362.7 4976.75 368.896C4967.85 380.627 4961.95 382.675 4952.04 383.699C4935.95 385.364 4917.91 384.024 4903.86 375.315C4891.46 367.63 4882.29 353.977 4881.98 339.127C4881.74 327.369 4890.5 316.813 4899.87 310.593Z" fill="#CC6187"/>
<path d="M4949.44 290.769C4950.15 287.823 4950.56 284.872 4950.62 281.842C4950.78 277.61 4950.98 277.974 4951.02 273.735C4951.06 269.827 4952.33 263.505 4951.49 259.655C4950.59 255.55 4946.87 249.267 4943.07 246.992C4941.01 245.763 4933.19 248.671 4930.95 249.727C4927.68 251.269 4926.81 254.207 4925.21 257.297C4923.56 260.492 4923.8 265.068 4923.23 268.612C4922.15 275.255 4924.26 281.826 4924.79 288.426C4925.01 291.275 4924.57 294.113 4923.37 296.724C4922.26 299.156 4920.31 300.621 4918.11 302.035C4911.26 306.43 4903.15 308.611 4896.9 313.982C4891.61 318.527 4887.25 324.904 4884.3 331.188C4882.34 335.371 4882.38 339.923 4882.22 344.551C4883.29 348.448 4885.04 352.221 4888.34 354.746C4892.5 357.933 4894.51 359.58 4899.66 359.505C4905.45 359.42 4910.67 358.132 4915.58 354.988C4921.67 351.095 4926.18 345.276 4930.25 339.416C4937.44 329.052 4942.39 317.135 4945.96 305.099C4947.37 300.369 4948.28 295.559 4949.44 290.769Z" fill="#B8476F"/>
<path d="M4954.44 329.414C4954.22 326.428 4955.17 325.609 4957.82 324.489C4960.46 324.294 4962.15 325.244 4962.37 328.23C4962.59 331.217 4962.17 333.138 4959.53 333.333C4957.65 333.853 4954.66 332.401 4954.44 329.414Z" fill="black"/>
<path d="M4924.52 331.624C4924.3 328.638 4925.12 327.828 4927.44 326.733C4929.74 326.562 4931.24 327.527 4931.46 330.514C4931.68 333.5 4931.32 335.417 4929.01 335.587C4927.37 336.089 4924.74 334.61 4924.52 331.624Z" fill="black"/>
<path d="M5733.73 814.79C5719.36 817.746 5703.97 807.933 5698.32 816.904C5693.77 826.962 5696.35 839.53 5694.35 850.112C5692.09 862.06 5689.31 871.093 5679.3 877.835C5670.44 883.805 5660.4 879.48 5656.94 869.773C5653.45 859.986 5656.62 849.43 5661.33 840.679C5666.3 831.437 5673.02 821.513 5674.1 810.779C5674.78 803.962 5671.91 796.034 5664.68 794.053C5655.06 791.417 5647.85 797.269 5640.27 802.16C5632.41 807.23 5623.62 810.953 5614.13 807.821C5604.57 804.667 5601.98 794.17 5606.45 785.633C5611.54 775.901 5624.47 774.987 5634.03 773.225C5644.19 771.353 5655.09 770.895 5665 767.769C5669.68 766.291 5674.58 764.42 5678.39 761.239C5681.83 758.373 5683.82 754.405 5686.08 750.625C5688.77 746.142 5692.33 742.6 5696.53 739.482C5704.56 733.514 5711.92 730.573 5721.96 733.591C5737.64 738.305 5749.95 752.823 5755.74 767.578C5759.34 776.758 5762.01 787.713 5758.3 797.339C5754.52 807.142 5743.43 812.795 5733.73 814.79Z" fill="#0D0A27"/>
<path d="M5701.45 794.03C5704.43 793.801 5705.25 794.747 5706.38 797.399C5706.58 800.037 5705.64 801.732 5702.65 801.961C5699.67 802.189 5697.74 801.771 5697.54 799.133C5697.02 797.252 5698.46 794.258 5701.45 794.03Z" fill="#DBCDCC"/>
<path d="M5699.16 764.117C5702.14 763.889 5702.95 764.709 5704.06 767.021C5704.23 769.329 5703.27 770.823 5700.29 771.051C5697.3 771.28 5695.38 770.932 5695.21 768.624C5694.7 766.981 5696.17 764.346 5699.16 764.117Z" fill="#DBCDCC"/>
<path d="M5682.32 302.59C5690.15 314.994 5686.39 332.854 5696.79 334.986C5707.8 335.693 5718.65 328.85 5729.26 326.991C5741.24 324.892 5750.67 324.305 5760.51 331.295C5769.22 337.485 5768.71 348.402 5760.85 355.062C5752.92 361.776 5741.92 362.537 5732.07 361.214C5721.67 359.817 5710.02 357.032 5699.59 359.809C5692.97 361.572 5686.57 367.054 5687.26 374.518C5688.19 384.452 5696.21 389.137 5703.46 394.506C5710.97 400.073 5717.55 406.978 5717.97 416.968C5718.39 427.026 5709.48 433.148 5699.91 431.978C5689.01 430.645 5683.6 418.867 5678.58 410.541C5673.24 401.693 5668.97 391.658 5662.55 383.487C5659.52 379.624 5656.04 375.702 5651.72 373.256C5647.83 371.052 5643.41 370.589 5639.08 369.804C5633.93 368.872 5629.36 366.786 5624.97 363.958C5616.55 358.544 5611.2 352.695 5610.49 342.238C5609.37 325.902 5618.61 309.258 5630.38 298.644C5637.7 292.039 5647.01 285.677 5657.33 285.752C5667.83 285.828 5677.03 294.215 5682.32 302.59Z" fill="#0D0A27"/>
<path d="M5674.28 340.121C5673.01 337.407 5673.6 336.305 5675.69 334.315C5678.09 333.196 5680.01 333.483 5681.27 336.196C5682.54 338.91 5682.83 340.857 5680.43 341.976C5678.85 343.13 5675.54 342.834 5674.28 340.121Z" fill="#DBCDCC"/>
<path d="M5647.09 352.81C5645.83 350.097 5646.31 349.048 5648.08 347.202C5650.18 346.223 5651.92 346.596 5653.18 349.309C5654.45 352.023 5654.8 353.94 5652.7 354.919C5651.34 355.972 5648.36 355.524 5647.09 352.81Z" fill="#DBCDCC"/>
<path d="M5614.11 1791.16C5623.34 1779.75 5641.46 1777.57 5640.14 1767.05C5637.27 1756.39 5627.3 1748.31 5622.13 1738.86C5616.29 1728.2 5612.71 1719.46 5616.16 1707.89C5619.22 1697.65 5629.72 1694.62 5638.56 1699.93C5647.46 1705.28 5651.72 1715.44 5653.63 1725.2C5655.65 1735.5 5656.76 1747.43 5662.74 1756.41C5666.54 1762.11 5673.79 1766.41 5680.64 1763.36C5689.75 1759.29 5691.6 1750.19 5694.36 1741.6C5697.21 1732.69 5701.64 1724.24 5710.96 1720.63C5720.35 1717 5729.01 1723.47 5730.98 1732.9C5733.22 1743.66 5723.81 1752.57 5717.54 1760C5710.88 1767.89 5702.75 1775.16 5697.07 1783.87C5694.39 1787.99 5691.79 1792.54 5690.87 1797.42C5690.03 1801.81 5691.01 1806.14 5691.66 1810.5C5692.43 1815.67 5691.93 1820.67 5690.66 1825.74C5688.24 1835.45 5684.42 1842.39 5674.75 1846.43C5659.64 1852.74 5640.91 1849.34 5627.07 1841.61C5618.47 1836.8 5609.45 1830.03 5606.21 1820.24C5602.9 1810.26 5607.88 1798.86 5614.11 1791.16Z" fill="#0D0A27"/>
<path d="M5652.24 1786.71C5650.08 1788.78 5648.84 1788.57 5646.29 1787.24C5644.46 1785.33 5644.11 1783.42 5646.27 1781.35C5648.44 1779.27 5650.19 1778.38 5652.02 1780.29C5653.62 1781.41 5654.4 1784.64 5652.24 1786.71Z" fill="#DBCDCC"/>
<path d="M5672.99 1808.37C5670.83 1810.44 5669.68 1810.32 5667.37 1809.24C5665.76 1807.56 5665.56 1805.8 5667.72 1803.73C5669.88 1801.66 5671.59 1800.71 5673.19 1802.38C5674.62 1803.33 5675.16 1806.3 5672.99 1808.37Z" fill="#DBCDCC"/>
<path d="M8324.24 241.724C8332.62 243.681 8344.63 243.927 8350.58 250.603C8360.59 261.401 8366.93 274.203 8379.96 282.687C8390.12 289.311 8399.91 292.043 8410.27 289.297C8419 286.983 8424.87 280.372 8429.29 273.621C8434.06 266.336 8438.79 259.292 8440.18 250.263C8441.36 242.509 8441.62 233.749 8439.67 225.485C8438.7 221.377 8435.68 217.86 8431.82 215.191C8427.25 212.023 8422.51 210.353 8417.56 208.077C8413.29 206.113 8410.85 204.265 8407.38 201.074C8399.79 194.05 8393.51 181.443 8393.45 174.239C8393.4 168.083 8393.2 161.898 8393.27 155.762C8393.33 151.24 8393.31 146.543 8390.54 142.059C8387.71 137.479 8382.22 136.548 8377.8 137.445C8370.82 138.861 8364.16 141.579 8361.73 147.949C8357.96 157.83 8362.24 170.274 8365.89 181.282C8368.58 189.418 8372.25 197.475 8378.97 205.762C8373.22 204.831 8371.88 206.189 8367.57 208.356C8361.89 212.713 8360.97 214.56 8358.73 220.877C8353.67 221.289 8346.7 218.674 8341.61 217.103C8328.66 213.11 8319.92 200.459 8307.09 195.902C8298.17 192.732 8285.21 191.066 8277.35 194.39C8264.33 199.898 8272.7 219.605 8284.09 226.971C8296.83 235.207 8310.19 238.442 8324.24 241.724Z" fill="#170F27"/>
<path d="M8374.04 250.465C8371.94 243.425 8375.98 230.759 8380.26 225.654C8382.35 223.522 8384.73 221.925 8387.77 220.877C8390.72 219.857 8393.59 219.9 8396.99 220.766C8401.12 221.818 8405.58 223.551 8409.26 225.975C8414.23 229.249 8415.46 235.266 8415.01 239.887C8414.34 246.907 8412.02 253.614 8407.04 258.398C8402.09 263.163 8393.51 266.355 8385.46 263.101C8379.49 260.688 8375.71 256.081 8374.04 250.465Z" fill="#DBCDCC"/>
<path d="M8398.6 236.443C8402.15 239.462 8401.73 241.747 8399.28 246.835C8395.85 250.864 8392.49 252.247 8388.94 249.227C8385.39 246.207 8383.89 243.447 8387.32 239.418C8389.35 236.118 8395.06 233.423 8398.6 236.443Z" fill="#170F27"/>
<path d="M8306.39 819.45C8311.52 810.833 8328.9 793.219 8326.13 787.867C8319.14 772.796 8314.34 755.972 8318.6 739.37C8320.16 733.294 8322.75 724.507 8329.76 722.762C8335.51 721.328 8340.16 726.473 8342.99 730.824C8348.45 739.213 8348.19 750.11 8348.73 759.731C8348.86 762.053 8348.66 764.622 8349.73 766.748C8351.47 770.179 8355.14 771.922 8358.92 771.612C8362.7 765.923 8382.06 736.994 8390.68 733.691C8399.3 730.387 8405.12 735.907 8407.56 743.782C8410.04 761.17 8404.89 767.469 8394.66 781.565C8383.13 790.226 8378.13 792.01 8368.77 793.037C8368.19 797.475 8377.11 812.676 8379.27 816.46C8382.35 821.865 8385.6 827.941 8386.53 834.173C8387.9 843.425 8382.03 852.809 8375.31 858.52C8361.15 870.551 8343.56 877.109 8324.84 875.459C8317.54 874.816 8309.5 872.693 8304.06 867.486C8299.19 862.831 8296.5 856.138 8296.33 849.41C8296.07 839.015 8301.22 828.142 8306.39 819.45Z" fill="#CC6187"/>
<path d="M8326.9 725.28C8330.06 723.387 8334.65 722.216 8337.88 724.663C8341.27 727.226 8342.51 733.961 8343.97 737.931C8345.98 743.374 8348.1 748.638 8349.28 754.354C8352.1 768.056 8353.58 782.249 8353.22 796.234C8352.85 810.743 8344.98 822.887 8340.17 836.711C8335.19 846.005 8326.47 855.201 8318.38 858.929C8308.44 863.514 8304.26 866.551 8298.58 860.52C8298.08 860.673 8295.13 856.133 8296.28 857.707C8297.08 858.807 8297.84 859.739 8298.58 860.52C8298.66 860.495 8298.67 860.35 8298.6 860.041C8297.85 856.878 8297.5 853.741 8297.76 850.503C8298.34 843.177 8299.61 834.944 8302.97 828.349C8309.19 816.114 8320.63 806.21 8322.93 792.196C8324.38 783.299 8322.84 774.969 8320.73 766.338C8319.17 760.01 8318.09 753.495 8318.18 746.955C8318.27 739.257 8321.77 728.346 8326.9 725.28Z" fill="#C2597E"/>
<path d="M8331.66 818.997C8331.83 821.987 8330.87 822.789 8328.2 823.862C8325.55 824.011 8323.88 823.031 8323.71 820.042C8323.54 817.052 8324 815.138 8326.64 814.989C8328.53 814.503 8331.5 816.007 8331.66 818.997Z" fill="black"/>
<path d="M8361.62 817.313C8361.79 820.303 8360.95 821.098 8358.61 822.153C8356.3 822.282 8354.83 821.292 8354.66 818.302C8354.49 815.312 8354.88 813.402 8357.19 813.272C8358.84 812.799 8361.45 814.323 8361.62 817.313Z" fill="black"/>
<path d="M8371.42 1926.46C8367.53 1917.21 8363.67 1892.78 8357.72 1891.82C8341.44 1888.5 8325.05 1882.38 8314.22 1869.09C8310.26 1864.23 8304.73 1856.93 8307.48 1850.26C8309.74 1844.77 8316.64 1844.09 8321.83 1844.39C8331.82 1844.98 8340.43 1851.66 8348.49 1856.94C8350.44 1858.21 8352.39 1859.9 8354.74 1860.29C8358.53 1860.93 8362.11 1859.01 8364.11 1855.79C8361.77 1849.37 8349.98 1816.62 8352.44 1807.72C8354.9 1798.82 8362.8 1797.41 8370.59 1800.12C8386.05 1808.45 8388.06 1816.34 8393.33 1832.93C8393.46 1847.35 8391.92 1852.44 8387.19 1860.58C8390.42 1863.68 8407.95 1865.53 8412.27 1866.04C8418.45 1866.77 8425.27 1867.76 8430.84 1870.71C8439.1 1875.1 8443.16 1885.4 8443.77 1894.19C8445.05 1912.73 8439.88 1930.78 8427.44 1944.86C8422.59 1950.36 8416.11 1955.56 8408.68 1956.85C8402.05 1958.01 8395.07 1956.2 8389.55 1952.34C8381.03 1946.38 8375.34 1935.78 8371.42 1926.46Z" fill="#CC6187"/>
<path d="M8307.81 1854.05C8308.17 1850.38 8309.95 1845.99 8313.83 1844.85C8317.91 1843.64 8324.07 1846.64 8328.13 1847.82C8333.7 1849.43 8339.19 1850.86 8344.49 1853.3C8357.2 1859.16 8369.5 1866.4 8380.54 1874.99C8391.99 1883.91 8397.09 1897.44 8405.36 1909.52C8409.88 1919.05 8412.1 1931.53 8410.31 1940.24C8408.09 1950.96 8408.06 1956.13 8399.83 1957.13C8399.66 1957.62 8394.25 1957.29 8396.2 1957.3C8397.56 1957.31 8398.76 1957.25 8399.83 1957.13C8399.85 1957.05 8399.75 1956.95 8399.46 1956.82C8396.47 1955.55 8393.73 1953.97 8391.28 1951.84C8385.73 1947.03 8379.86 1941.11 8376.54 1934.5C8370.39 1922.23 8369.21 1907.14 8359.3 1896.97C8353.01 1890.52 8345.39 1886.81 8337.19 1883.39C8331.17 1880.88 8325.29 1877.88 8320.08 1873.94C8313.94 1869.29 8307.23 1860 8307.81 1854.05Z" fill="#C2597E"/>
<path d="M8386.06 1905.85C8388.56 1907.49 8388.64 1908.74 8387.91 1911.53C8386.46 1913.74 8384.68 1914.51 8382.17 1912.87C8379.67 1911.23 8378.4 1909.73 8379.85 1907.51C8380.58 1905.7 8383.55 1904.21 8386.06 1905.85Z" fill="black"/>
<path d="M8402.48 1880.75C8404.99 1882.39 8405.13 1883.53 8404.59 1886.04C8403.33 1887.97 8401.65 1888.57 8399.15 1886.93C8396.64 1885.29 8395.34 1883.85 8396.6 1881.91C8397.2 1880.3 8399.98 1879.11 8402.48 1880.75Z" fill="black"/>
<path d="M7592.52 236.736C7602.54 236.198 7626.84 240.83 7629.75 235.552C7638.38 221.356 7649.68 208.008 7665.85 202.304C7671.76 200.216 7680.51 197.483 7685.85 202.329C7690.25 206.313 7688.56 213.037 7686.52 217.812C7682.59 227.017 7673.39 232.863 7665.7 238.667C7663.84 240.068 7661.6 241.332 7660.43 243.408C7658.54 246.758 7659.14 250.783 7661.5 253.749C7668.33 253.724 7703.14 253.701 7710.68 259.024C7718.23 264.348 7716.88 272.254 7711.7 278.669C7698.63 290.408 7690.53 289.631 7673.13 288.982C7659.51 284.222 7655.25 281.06 7649.18 273.853C7645.18 275.847 7637.51 291.717 7635.57 295.615C7632.79 301.18 7629.55 307.263 7624.89 311.503C7617.97 317.797 7606.91 318.139 7598.42 315.736C7580.55 310.673 7565.31 299.707 7556.26 283.235C7552.73 276.81 7550.02 268.95 7551.31 261.53C7552.47 254.896 7556.53 248.934 7562.03 245.05C7570.52 239.048 7582.42 237.278 7592.52 236.736Z" fill="#CC6187"/>
<path d="M7682.17 201.356C7685.51 202.933 7689.03 206.089 7688.8 210.136C7688.55 214.376 7683.65 219.159 7681.17 222.586C7677.76 227.282 7674.56 231.97 7670.47 236.131C7660.66 246.107 7649.69 255.234 7637.87 262.718C7625.61 270.481 7611.15 270.706 7596.98 274.406C7586.49 275.436 7573.99 273.312 7566.4 268.671C7557.06 262.964 7552.21 261.182 7554.05 253.102C7553.65 252.776 7555.78 247.8 7555.11 249.628C7554.64 250.906 7554.29 252.057 7554.05 253.102C7554.12 253.155 7554.25 253.088 7554.46 252.855C7556.67 250.472 7559.09 248.435 7561.92 246.845C7568.33 243.248 7575.88 239.727 7583.22 238.842C7596.85 237.199 7611.45 241.192 7624.37 235.301C7632.57 231.561 7638.63 225.645 7644.62 219.082C7649.02 214.269 7653.83 209.746 7659.31 206.175C7665.76 201.972 7676.77 198.8 7682.17 201.356Z" fill="#C2597E"/>
<path d="M7606.97 257.478C7604.57 259.282 7603.37 258.929 7600.99 257.305C7599.4 255.193 7599.28 253.256 7601.67 251.452C7604.06 249.648 7605.91 248.962 7607.5 251.074C7608.96 252.375 7609.36 255.675 7606.97 257.478Z" fill="black"/>
<path d="M7625.04 281.426C7622.65 283.229 7621.52 282.976 7619.34 281.625C7617.95 279.777 7617.95 278.001 7620.34 276.197C7622.73 274.393 7624.54 273.652 7625.93 275.499C7627.24 276.609 7627.43 279.622 7625.04 281.426Z" fill="black"/>
<path d="M8353.31 1511.86C8359.84 1506.26 8367.14 1496.71 8376.04 1495.86C8390.67 1494.17 8404.74 1496.63 8419.28 1491.14C8430.64 1486.85 8438.63 1480.57 8442.53 1470.6C8445.83 1462.19 8443.97 1453.55 8441.13 1445.99C8438.08 1437.84 8435.2 1429.85 8428.73 1423.4C8423.18 1417.86 8416.27 1412.47 8408.45 1409.16C8404.56 1407.51 8399.94 1407.87 8395.51 1409.4C8390.25 1411.22 8386.1 1414.06 8381.34 1416.7C8377.23 1418.98 8374.3 1419.86 8369.67 1420.78C8359.52 1422.74 8345.63 1420.36 8339.79 1416.15C8334.79 1412.55 8329.69 1409.05 8324.78 1405.37C8321.17 1402.65 8317.37 1399.88 8312.12 1399.47C8306.75 1399.04 8302.75 1402.92 8300.86 1407.02C8297.88 1413.48 8296.13 1420.46 8299.84 1426.19C8305.58 1435.07 8318.14 1438.98 8329.18 1442.54C8337.33 1445.17 8346 1446.98 8356.66 1446.46C8352.5 1450.55 8352.81 1452.43 8352.01 1457.19C8352.17 1464.34 8353.11 1466.18 8356.88 1471.72C8354.22 1476.04 8348 1480.12 8343.72 1483.3C8332.84 1491.38 8317.47 1490.95 8306.21 1498.6C8298.38 1503.92 8289.37 1513.4 8287.41 1521.7C8284.16 1535.46 8305 1540.36 8317.68 1535.52C8331.85 1530.11 8342.35 1521.25 8353.31 1511.86Z" fill="#170F27"/>
<path d="M8389.8 1476.87C8382.88 1474.4 8375.05 1463.65 8373.46 1457.18C8372.98 1454.23 8373.1 1451.37 8374.05 1448.3C8374.97 1445.31 8376.7 1443.02 8379.41 1440.79C8382.7 1438.08 8386.74 1435.51 8390.87 1433.97C8396.45 1431.9 8402.02 1434.47 8405.49 1437.56C8410.75 1442.25 8414.79 1448.09 8415.71 1454.93C8416.62 1461.75 8414.12 1470.55 8406.74 1475.12C8401.27 1478.51 8395.31 1478.83 8389.8 1476.87Z" fill="#DBCDCC"/>
<path d="M8393.01 1448.76C8397.54 1447.68 8399.14 1449.37 8401.79 1454.35C8403.01 1459.5 8402.14 1463.04 8397.61 1464.11C8393.07 1465.19 8389.96 1464.77 8388.74 1459.62C8387.28 1456.03 8388.48 1449.83 8393.01 1448.76Z" fill="#170F27"/>
<path d="M7850.21 1543.08C7852.81 1552.19 7848.96 1568.17 7856.74 1570.58C7859.8 1571.53 7864.35 1572.05 7867.53 1572.81C7877.08 1575.09 7886.3 1577.67 7894.47 1583.05C7900.56 1587.07 7903.61 1603.48 7895.29 1606.97C7881.48 1612.75 7868.23 1601.68 7855.6 1598.35C7851.13 1597.17 7847.51 1599.16 7844.46 1602.55C7841.75 1605.55 7841.88 1607.2 7842.98 1611.18C7845.63 1620.74 7854.63 1627.85 7861.11 1634.77C7864.97 1638.89 7866.5 1644.52 7862.95 1651.31C7859.83 1657.28 7851.34 1658.27 7846.42 1655.63C7839.23 1649.36 7830.18 1639.55 7825.34 1631.83C7820.5 1624.96 7818.55 1617.46 7810.94 1613.88C7804.32 1610.76 7798.42 1609.45 7791.25 1608.25C7783.74 1607 7775.86 1605.06 7771.37 1598.71C7762.88 1586.68 7762.72 1580.43 7764.74 1570.68C7768.02 1554.84 7774.76 1538.05 7787.31 1527.3C7798.39 1517.81 7814.18 1513.19 7828.42 1517.39C7839.7 1520.72 7847.12 1532.26 7850.21 1543.08Z" fill="#CC6187"/>
<path d="M7854.1 1596.32C7856.69 1597.89 7859.38 1599.17 7862.25 1600.15C7866.24 1601.58 7865.83 1601.67 7869.86 1602.99C7873.57 1604.2 7879.21 1607.32 7883.14 1607.69C7887.32 1608.08 7894.43 1606.43 7897.75 1603.5C7899.55 1601.91 7899.14 1593.58 7898.81 1591.12C7898.33 1587.53 7895.8 1585.81 7893.34 1583.36C7890.79 1580.82 7886.36 1579.66 7883.15 1578.04C7877.14 1575.01 7870.24 1575.03 7863.79 1573.53C7861.01 1572.89 7858.44 1571.6 7856.31 1569.68C7854.33 1567.88 7853.53 1565.58 7852.84 1563.05C7850.73 1555.2 7851.1 1546.8 7847.88 1539.22C7845.15 1532.8 7840.39 1526.72 7835.29 1522.01C7831.9 1518.87 7827.55 1517.53 7823.18 1515.98C7819.15 1515.82 7815.02 1516.35 7811.61 1518.72C7807.32 1521.72 7805.14 1523.14 7803.65 1528.08C7801.98 1533.62 7801.63 1538.98 7803.14 1544.62C7805.01 1551.6 7809.19 1557.66 7813.54 1563.31C7821.24 1573.3 7831.1 1581.63 7841.5 1588.67C7845.58 1591.44 7849.89 1593.77 7854.1 1596.32Z" fill="#B8476F"/>
<path d="M7815.76 1589.39C7818.67 1590.08 7819.16 1591.24 7819.43 1594.11C7818.81 1596.68 7817.4 1598.01 7814.48 1597.31C7811.57 1596.62 7809.87 1595.63 7810.48 1593.06C7810.55 1591.11 7812.84 1588.7 7815.76 1589.39Z" fill="black"/>
<path d="M7822.7 1560.21C7825.62 1560.9 7826.14 1561.93 7826.48 1564.47C7825.95 1566.72 7824.58 1567.85 7821.66 1567.15C7818.75 1566.46 7817.03 1565.54 7817.57 1563.29C7817.58 1561.57 7819.79 1559.51 7822.7 1560.21Z" fill="black"/>
<path d="M8676.67 985.66C8671.44 971.953 8678.65 955.187 8668.89 951.045C8658.23 948.176 8646.24 952.739 8635.47 952.466C8623.32 952.157 8613.96 950.87 8605.69 942.074C8598.37 934.284 8601.03 923.684 8610.06 918.708C8619.15 913.692 8630.08 915.119 8639.48 918.362C8649.4 921.786 8660.27 926.819 8671.04 926.156C8677.88 925.736 8685.24 921.628 8686.03 914.174C8687.09 904.253 8680.15 898.075 8674.11 891.38C8667.84 884.437 8662.75 876.369 8664.32 866.494C8665.9 856.551 8675.84 852.309 8684.98 855.346C8695.41 858.807 8698.39 871.423 8701.66 880.576C8705.15 890.303 8707.35 900.985 8712.03 910.263C8714.24 914.649 8716.87 919.18 8720.63 922.432C8724.01 925.362 8728.24 926.688 8732.34 928.314C8737.19 930.243 8741.26 933.191 8745.01 936.832C8752.2 943.802 8756.28 950.592 8754.92 960.985C8752.79 977.219 8740.44 991.709 8726.8 999.789C8718.32 1004.82 8707.94 1009.21 8697.84 1007.1C8687.56 1004.95 8680.2 994.914 8676.67 985.66Z" fill="#0D0A27"/>
<path d="M8691.97 950.458C8692.67 953.368 8691.87 954.331 8689.44 955.87C8686.86 956.494 8685.04 955.833 8684.33 952.923C8683.63 950.013 8683.73 948.047 8686.3 947.424C8688.08 946.604 8691.26 947.548 8691.97 950.458Z" fill="#DBCDCC"/>
<path d="M8721.12 943.389C8721.83 946.299 8721.15 947.232 8719.05 948.691C8716.8 949.236 8715.17 948.528 8714.46 945.618C8713.76 942.708 8713.79 940.759 8716.04 940.214C8717.58 939.45 8720.42 940.478 8721.12 943.389Z" fill="#DBCDCC"/>
<path d="M7693.77 1024.57C7706.51 1031.84 7711.58 1049.37 7721.75 1046.38C7731.81 1041.83 7738.18 1030.69 7746.67 1024.07C7756.26 1016.59 7764.31 1011.65 7776.28 1013.2C7786.88 1014.57 7791.56 1024.45 7787.74 1034.02C7783.89 1043.68 7774.54 1049.51 7765.23 1052.97C7755.39 1056.62 7743.79 1059.63 7735.89 1066.98C7730.87 1071.64 7727.79 1079.49 7731.91 1085.75C7737.39 1094.09 7746.67 1094.46 7755.59 1095.8C7764.84 1097.18 7773.89 1100.19 7778.95 1108.82C7784.04 1117.5 7779.05 1127.09 7770.06 1130.55C7759.8 1134.49 7749.49 1126.63 7741.15 1121.64C7732.29 1116.33 7723.8 1109.47 7714.3 1105.27C7709.81 1103.29 7704.9 1101.46 7699.93 1101.33C7695.46 1101.21 7691.34 1102.87 7687.15 1104.21C7682.17 1105.81 7677.16 1106.11 7671.95 1105.68C7661.97 1104.85 7654.51 1102.2 7648.96 1093.3C7640.31 1079.4 7640.65 1060.37 7646.06 1045.47C7649.42 1036.2 7654.66 1026.21 7663.8 1021.43C7673.11 1016.57 7685.17 1019.65 7693.77 1024.57Z" fill="#0D0A27"/>
<path d="M7704.29 1061.48C7701.9 1059.68 7701.91 1058.43 7702.81 1055.69C7704.4 1053.58 7706.23 1052.93 7708.63 1054.73C7711.02 1056.53 7712.18 1058.11 7710.59 1060.23C7709.74 1061.99 7706.68 1063.28 7704.29 1061.48Z" fill="#DBCDCC"/>
<path d="M7686.25 1085.45C7683.85 1083.65 7683.79 1082.49 7684.49 1080.03C7685.88 1078.18 7687.59 1077.69 7689.98 1079.5C7692.37 1081.3 7693.58 1082.83 7692.19 1084.67C7691.49 1086.24 7688.64 1087.25 7686.25 1085.45Z" fill="#DBCDCC"/>
<path d="M7168.72 1568.31C7181.46 1575.58 7186.53 1593.12 7196.7 1590.12C7206.76 1585.57 7213.13 1574.44 7221.62 1567.81C7231.21 1560.34 7239.26 1555.39 7251.23 1556.94C7261.83 1558.32 7266.51 1568.19 7262.69 1577.77C7258.84 1587.42 7249.49 1593.25 7240.17 1596.71C7230.33 1600.36 7218.74 1603.37 7210.83 1610.72C7205.82 1615.38 7202.74 1623.23 7206.85 1629.5C7212.33 1637.83 7221.62 1638.2 7230.54 1639.54C7239.79 1640.93 7248.84 1643.93 7253.9 1652.56C7258.99 1661.24 7254 1670.83 7245 1674.29C7234.75 1678.23 7224.44 1670.37 7216.1 1665.38C7207.24 1660.07 7198.75 1653.22 7189.25 1649.02C7184.76 1647.03 7179.84 1645.2 7174.88 1645.07C7170.41 1644.95 7166.29 1646.61 7162.1 1647.96C7157.12 1649.55 7152.1 1649.85 7146.89 1649.42C7136.92 1648.59 7129.45 1645.94 7123.91 1637.04C7115.26 1623.14 7115.6 1604.11 7121.01 1589.21C7124.37 1579.94 7129.6 1569.95 7138.75 1565.18C7148.06 1560.31 7160.12 1563.4 7168.72 1568.31Z" fill="#0D0A27"/>
<path d="M7179.24 1605.22C7176.85 1603.42 7176.85 1602.17 7177.76 1599.43C7179.35 1597.32 7181.18 1596.67 7183.57 1598.47C7185.97 1600.27 7187.13 1601.86 7185.54 1603.97C7184.69 1605.73 7181.63 1607.02 7179.24 1605.22Z" fill="#DBCDCC"/>
<path d="M7161.2 1629.19C7158.8 1627.39 7158.74 1626.24 7159.44 1623.77C7160.83 1621.92 7162.54 1621.44 7164.93 1623.24C7167.32 1625.04 7168.53 1626.57 7167.14 1628.42C7166.43 1629.99 7163.59 1630.99 7161.2 1629.19Z" fill="#DBCDCC"/>
<path d="M6442.28 369.189C6443.86 383.774 6432.63 398.159 6441.02 404.646C6450.6 410.127 6463.35 408.758 6473.7 411.756C6485.38 415.141 6494.1 418.763 6499.86 429.369C6504.96 438.761 6499.7 448.34 6489.71 450.861C6479.64 453.402 6469.43 449.248 6461.17 443.726C6452.44 437.894 6443.2 430.265 6432.62 428.172C6425.9 426.842 6417.73 428.946 6415.07 435.954C6411.53 445.282 6416.67 453.018 6420.82 461.03C6425.12 469.336 6427.99 478.432 6423.97 487.586C6419.92 496.802 6409.22 498.38 6401.15 493.121C6391.95 487.126 6392.27 474.167 6391.42 464.482C6390.52 454.189 6391.11 443.299 6388.94 433.136C6387.91 428.333 6386.51 423.281 6383.71 419.183C6381.18 415.49 6377.42 413.133 6373.88 410.52C6369.67 407.421 6366.48 403.537 6363.78 399.062C6358.6 390.497 6356.37 382.892 6360.33 373.186C6366.52 358.025 6382.14 347.147 6397.38 342.792C6406.86 340.083 6418.02 338.466 6427.25 343.072C6436.65 347.762 6441.22 359.342 6442.28 369.189Z" fill="#0D0A27"/>
<path d="M6418.55 399.352C6418.6 396.358 6419.62 395.631 6422.37 394.761C6425.01 394.81 6426.61 395.913 6426.55 398.907C6426.5 401.901 6425.9 403.775 6423.25 403.726C6421.33 404.069 6418.49 402.347 6418.55 399.352Z" fill="#DBCDCC"/>
<path d="M6388.55 398.787C6388.61 395.793 6389.5 395.063 6391.91 394.186C6394.22 394.23 6395.62 395.328 6395.56 398.323C6395.5 401.317 6394.97 403.192 6392.66 403.149C6390.98 403.497 6388.49 401.781 6388.55 398.787Z" fill="#DBCDCC"/>
</svg>
