<svg width="256" height="256" viewBox="0 0 256 256" fill="none" xmlns="http://www.w3.org/2000/svg">
<path d="M114.35 92.1138C110.149 95.4433 103.7 107.052 102.596 111.908C100.89 110.534 99.2579 109.093 97.7078 107.594C93.2491 103.282 90.0732 97.9249 87.9997 92.469C87.3287 90.7035 86.8354 88.8951 86.3938 87.0791C86.1897 86.2397 86.1137 85.1531 85.5665 84.405C85.1937 83.8951 84.3246 85.6266 84.204 85.8256C82.8066 88.1305 81.6179 90.3855 80.6516 92.8659C78.4781 98.4455 78.956 103.306 79.1184 109.183C80.6183 116.556 82.1186 119.962 89.6189 129.361C86.2522 131.187 75.6183 130.649 72.8413 127.691C69.5818 125.056 66.6587 121.529 65.1283 117.893C64.2749 115.866 64.2524 114.005 64.2524 111.908C64.2524 110.333 63.4309 114.988 63.2548 116.556C62.4664 123.58 63.5313 129.497 66.1178 136.23C68.895 143.46 72.1895 147.822 78.6184 155.55C81.1185 158.555 94.8302 167.134 97.7106 168.623C100.751 170.196 104.002 170.636 107.401 171.521C113.659 173.149 120.549 173.196 127.018 172.779C138.704 172.025 151.425 167.914 160.239 161.152C168.541 154.784 174.659 147.161 179.214 138.459L179.276 138.341C182.036 133.067 184.941 127.518 189.996 123.572C194.502 118.736 205.124 115.623 202.624 110.471C201.16 107.453 197.328 111.046 195.124 111.908C188.95 114.323 182.845 114.309 175.835 111.96C172.205 110.744 169.856 108.101 167.952 105.307C165.667 101.952 163.788 98.441 161.091 95.2997C155.757 89.0873 148.803 85.6262 139.971 84.3006C130.478 82.8757 121.196 86.6882 114.35 92.1138Z" fill="#D0F5CB"/>
<path d="M102.596 111.908C103.7 107.052 110.149 95.4433 114.35 92.1138C121.196 86.6882 130.478 82.8757 139.971 84.3006C148.803 85.6262 155.757 89.0873 161.091 95.2997C163.788 98.441 165.667 101.952 167.952 105.307C169.856 108.101 172.205 110.744 175.835 111.96C182.845 114.309 188.95 114.323 195.124 111.908C197.328 111.046 201.16 107.453 202.624 110.471C205.124 115.623 194.502 118.736 189.996 123.572C184.941 127.518 182.036 133.067 179.276 138.341L179.214 138.459C174.659 147.161 168.541 154.784 160.239 161.152C151.425 167.914 138.704 172.025 127.018 172.779C120.549 173.196 113.659 173.149 107.401 171.521C104.002 170.636 100.751 170.196 97.7106 168.623C94.8302 167.134 81.1185 158.555 78.6184 155.55C72.1895 147.822 68.895 143.46 66.1178 136.23C63.5313 129.497 62.4664 123.58 63.2548 116.556C63.4309 114.988 64.2524 110.333 64.2524 111.908C64.2524 114.005 64.2749 115.866 65.1283 117.893C66.6587 121.529 69.5818 125.056 72.8413 127.691C75.6183 130.649 86.2522 131.187 89.6189 129.361C82.1186 119.962 80.6183 116.556 79.1184 109.183C78.9561 103.306 78.4781 98.4455 80.6516 92.8659C81.6179 90.3855 82.8066 88.1305 84.204 85.8256C84.3246 85.6266 85.1937 83.8951 85.5665 84.405C86.1137 85.1531 86.1897 86.2397 86.3938 87.0791C86.8354 88.8951 87.3287 90.7035 87.9997 92.469C90.0732 97.9249 93.2491 103.282 97.7078 107.594C102.694 112.416 108.526 116.637 114.959 119.962C117.666 121.361 120.229 123.129 123.183 124.098" stroke="#D0F5CB" stroke-width="6" stroke-linecap="round"/>
</svg>
